<?xml version="1.0" encoding="utf-8"?>
<!-- Generator: Adobe Illustrator 24.1.2, SVG Export Plug-In . SVG Version: 6.00 Build 0)  -->
<svg version="1.1" id="Layer_1" xmlns="http://www.w3.org/2000/svg" xmlns:xlink="http://www.w3.org/1999/xlink" x="0px" y="0px"
	 viewBox="0 0 423.3 593.6" style="enable-background:new 0 0 423.3 593.6;" xml:space="preserve">
<style type="text/css">
	.st0{fill:#FFD985;stroke:#000000;stroke-width:5.6693;stroke-miterlimit:10;}
	.st1{fill:#ED1E27;stroke:#000000;stroke-width:5.6693;stroke-miterlimit:10;}
	.st2{fill:#E54A52;stroke:#000000;stroke-width:5.6693;stroke-miterlimit:10;}
	.st3{fill:#5063AE;stroke:#000000;stroke-width:5.6693;stroke-miterlimit:10;}
	.st4{fill:none;stroke:#000000;stroke-width:5.6693;stroke-miterlimit:10;}
	.st5{fill-rule:evenodd;clip-rule:evenodd;fill:#ED1E27;stroke:#000000;stroke-width:5.6693;stroke-miterlimit:10;}
	.st6{fill-rule:evenodd;clip-rule:evenodd;fill:#5063AE;stroke:#000000;stroke-width:5.6693;stroke-miterlimit:10;}
	.st7{fill-rule:evenodd;clip-rule:evenodd;stroke:#000000;stroke-miterlimit:10;}
	.st8{fill-rule:evenodd;clip-rule:evenodd;fill:#FFE19E;stroke:#000000;stroke-width:4.7525;stroke-miterlimit:10;}
</style>
<g id="img">
	<path class="st0" d="M403.3,27.2c0-11.4-9.2-20.6-20.6-20.6H40.6C29.2,6.6,20,15.8,20,27.2v525.1c0,11.4,9.2,20.6,20.6,20.6h342.1
		c11.4,0,20.6-9.2,20.6-20.6V27.2L403.3,27.2z"/>
	<path class="st1" d="M420.4,25.2c0-12.4-10-22.4-22.4-22.4H25.2c-12.4,0-22.4,10-22.4,22.4v70.5h139.4l69.4-27.3h208.8V25.2z"/>
	<path class="st2" d="M219.1,94.2l-75.5,29.4H7v445.2c0,12.2,9.8,22,22,22h365.3c12.2,0,22-9.8,22-22V94.2H219.1z"/>
	<path class="st3" d="M120.3,49.3c0-17.2-13.9-31.1-31.1-31.1S58,32,58,49.3s13.9,31.1,31.1,31.1S120.3,66.4,120.3,49.3z"/>
	<path class="st2" d="M173.3,31.5c0-7.4-6.1-13.5-13.5-13.5s-13.5,6.1-13.5,13.5S152.4,45,159.8,45C167.3,45,173.3,39,173.3,31.5z"
		/>
	<path class="st2" d="M217.9,31.5c0-7.4-6.1-13.5-13.5-13.5c-7.4,0-13.5,6.1-13.5,13.5S197,45,204.4,45
		C211.9,45,217.9,39,217.9,31.5z"/>
	<line class="st4" x1="376.7" y1="95.7" x2="376.7" y2="591.6"/>
	<line class="st4" x1="376.7" y1="150.7" x2="416.3" y2="150.7"/>
	<line class="st4" x1="376.7" y1="543.3" x2="416.3" y2="543.3"/>
</g>
<g id="img_1_">
	<path class="st0" d="M-442.1,105.2c0-11.2-9.1-20.3-20.3-20.3h-337.4c-11.2,0-20.3,9.1-20.3,20.3V623c0,11.2,9.1,20.3,20.3,20.3
		h337.4c11.2,0,20.3-9.1,20.3-20.3V105.2L-442.1,105.2z"/>
	<path class="st1" d="M-425.2,103.3c0-12.2-9.9-22.1-22.1-22.1h-367.6c-12.2,0-22.1,9.9-22.1,22.1v69.5h137.5l68.4-26.9h205.9V103.3
		z"/>
	<path class="st2" d="M-623.7,171.3l-74.5,29h-134.7v439c0,12,9.7,21.7,21.7,21.7H-451c12,0,21.7-9.7,21.7-21.7v-468H-623.7z"/>
	<path class="st3" d="M-721.2,127c0-17-13.7-30.7-30.7-30.7s-30.7,13.7-30.7,30.7s13.7,30.7,30.7,30.7
		C-734.9,157.7-721.2,143.9-721.2,127z"/>
	<path class="st2" d="M-668.9,109.5c0-7.3-6-13.3-13.3-13.3s-13.3,6-13.3,13.3c0,7.3,6,13.3,13.3,13.3
		C-674.8,122.8-668.9,116.9-668.9,109.5z"/>
	<path class="st2" d="M-624.9,109.5c0-7.3-6-13.3-13.3-13.3s-13.3,6-13.3,13.3c0,7.3,6,13.3,13.3,13.3
		C-630.8,122.8-624.9,116.9-624.9,109.5z"/>
	<line class="st4" x1="-468.3" y1="172.8" x2="-468.3" y2="661.8"/>
	<line class="st4" x1="-468.3" y1="227" x2="-429.3" y2="227"/>
	<line class="st4" x1="-468.3" y1="614.2" x2="-429.3" y2="614.2"/>
	<path class="st5" d="M-783.1,238.5h263.3c10,0,18.1,8.1,18.1,18.1v216.2c0,9.8-8.1,18.1-18.1,18.1h-233.8c-6.8,0-21-15.9-25.9-20.6
		c-0.8-0.8-1.5-1.5-2.3-2.3c-4.2-4.2-8.5-8.3-12.5-12.7c-2.8-2.8-7-7.4-7-11.3V256.7C-801.2,246.6-793.1,238.5-783.1,238.5
		L-783.1,238.5z"/>
	<path class="st6" d="M-733.4,442.6c9.4,0,17,7.7,17,17.2c0,9.4-7.6,17.2-17,17.2c-9.4,0-17.2-7.7-17.2-17.2
		C-750.6,450.4-742.8,442.6-733.4,442.6L-733.4,442.6z"/>
	<path class="st7" d="M-608.5,446.3h65c1.1,0,2.3,0.9,2.3,2.3l0,0c0,1.3-1.1,2.5-2.3,2.5h-65c-1.3,0-2.3-1.1-2.3-2.5l0,0
		C-610.7,447.3-609.8,446.3-608.5,446.3L-608.5,446.3z"/>
	<path class="st7" d="M-608.5,458.6h65c1.1,0,2.3,1.1,2.3,2.5l0,0c0,1.3-1.1,2.3-2.3,2.3h-65c-1.3,0-2.3-0.9-2.3-2.3l0,0
		C-610.7,459.7-609.8,458.6-608.5,458.6L-608.5,458.6z"/>
	<path class="st7" d="M-608.5,471.1h65c1.1,0,2.3,0.9,2.3,2.3l0,0c0,1.3-1.1,2.5-2.3,2.5h-65c-1.3,0-2.3-1.1-2.3-2.5l0,0
		C-610.7,472-609.8,471.1-608.5,471.1L-608.5,471.1z"/>
	<path class="st8" d="M-775.5,257.9h249.4c5.6,0,9.9,5.2,9.9,11.6V398c0,6.4-4.3,11.6-9.9,11.6h-249.4c-5.6,0-9.9-5.2-9.9-11.6
		V269.5C-785.4,263.1-781.1,257.9-775.5,257.9L-775.5,257.9z"/>
</g>
</svg>
