<?xml version="1.0" encoding="utf-8"?>
<!-- Generator: Adobe Illustrator 23.0.4, SVG Export Plug-In . SVG Version: 6.00 Build 0)  -->
<svg version="1.1" id="Layer_1" xmlns="http://www.w3.org/2000/svg" xmlns:xlink="http://www.w3.org/1999/xlink" x="0px" y="0px"
	 viewBox="0 0 425.9 595.3" style="enable-background:new 0 0 425.9 595.3;" xml:space="preserve">
<style type="text/css">
	.st0{fill:#E54A52;stroke:#000000;stroke-width:5.8941;stroke-miterlimit:10;}
	.st1{fill-rule:evenodd;clip-rule:evenodd;fill:#5063AE;stroke:#000000;stroke-width:5.6803;stroke-miterlimit:10;}
	.st2{fill-rule:evenodd;clip-rule:evenodd;fill:#FFFFFF;}
	.st3{fill-rule:evenodd;clip-rule:evenodd;fill:#FFDF98;}
	.st4{fill-rule:evenodd;clip-rule:evenodd;fill:#FFE19E;}
	.st5{fill-rule:evenodd;clip-rule:evenodd;}
	.st6{fill-rule:evenodd;clip-rule:evenodd;fill:#FFD98D;}
</style>
<g id="img">
	<path class="st0" d="M282.7,113.5h140v456.4c0,12.5-10.1,22.6-22.6,22.6H25.7c-12.5,0-22.6-10.1-22.6-22.6V83.4h202.1L282.7,113.5z
		"/>
	<path class="st1" d="M-214.4,386.1h35.1c3.1,0,5.7,2.5,5.7,5.6l0,0c0,3.1-2.5,5.6-5.7,5.6h-35.1c-3.1,0-5.7-2.5-5.7-5.6l0,0
		C-220,388.6-217.5,386.1-214.4,386.1L-214.4,386.1z"/>
	<path class="st1" d="M-151.7,386.1h35.1c3.1,0,5.6,2.5,5.6,5.6l0,0c0,3.1-2.5,5.6-5.6,5.6h-35.1c-3.1,0-5.7-2.5-5.7-5.6l0,0
		C-157.5,388.6-155,386.1-151.7,386.1L-151.7,386.1z"/>
	<g>
		<g>
			<path class="st2" d="M340.1,81.3c0.2-0.2,0.3-0.6,0.5-0.7c0.8-0.4,1.5-0.5,2.2-0.2l0,0.1c-0.2,0.4-0.5,0.6-0.7,0.8
				c-0.6,0.7-1.2,1.5-1.9,2.3c-0.3-0.3-0.3-0.8-0.4-1.1C339.8,82.1,340,81.8,340.1,81.3z"/>
			<path class="st2" d="M343,80.4C343,80.5,343,80.5,343,80.4C343,80.5,343,80.5,343,80.4L343,80.4L343,80.4z"/>
			<path class="st2" d="M295.6,87.1c-0.2-0.6-0.4-1.1-0.6-1.8c-0.2-0.6-0.3-1-0.5-1.4c0.1-0.1,0.2,0,0.2,0c0.8,0,1.4,0.7,1.6,1.6
				c0,0.6,0.2,1.1-0.1,1.5c0,0.1-0.2,0.2-0.1,0.5c-0.1,0.1-0.3,0.4-0.4,0.5C295.7,87.4,295.7,87.3,295.6,87.1z"/>
		</g>
		<path class="st3" d="M289.7,97.4"/>
		<g>
			<g>
				<path class="st4" d="M340.1,72.8L340.1,72.8L340.1,72.8z"/>
				<path class="st4" d="M339.9,73.4l0.1,0l0.1,0l0,0l0.1,0l0,0l0.1,0l0,0l0.1,0l0,0l0.1,0l0,0l0.1,0l0,0l0.1,0l0,0l0.1,0l0,0l0.1,0
					l0,0l0.1,0l0,0l0.1,0l0,0l0.1,0l0,0l0,0l0.1,0l0,0l0,0l0.1,0l0,0l0,0c0.2,0,0.3,0,0.5-0.3l0,0l0,0l0,0c0,0,0,0,0.1,0l0,0l0,0
					l0.1,0l0,0l0,0l0,0l0.1,0l0,0l0,0l0,0l0.1,0l0,0l0,0l0,0l0.1,0l0,0l0,0l0,0l0.1,0l0,0l0,0l0,0l0.1,0l0,0l0,0l0,0l0.1,0l0,0
					c0.1,0,0.2-0.1,0.3-0.1c0.5-0.3,1-0.4,1.5-0.7c0.3-0.1,0.8-0.4,1.1-0.5c0.1,0,0.1-0.1,0.1-0.2c0,0,0-0.1-0.1-0.1l0,0
					c0,0,0,0,0-0.1l0,0c0-0.1-0.1-0.1-0.1-0.2l0,0c0,0,0,0,0-0.1l0,0c0,0,0,0,0-0.1l0,0l0-0.1l0,0c0,0,0,0,0-0.1l0,0
					c-0.1-0.1-0.1-0.2-0.2-0.2c-0.5-0.6-0.9-1.3-1.4-1.9c0-0.1-0.1-0.2-0.3-0.3c-0.3,0.4-0.6,0.7-0.8,1.1c-0.1,0.1-0.2,0.2-0.3,0.3
					c-0.3,0.4-0.6,0.7-0.9,1.1l0,0c-0.1,0,0,0.1-0.1,0.1l0,0c0,0,0,0-0.1,0.1l0,0c0,0,0,0-0.1,0.1l0,0c0,0,0,0-0.1,0.1l0,0l0,0l0,0
					c0,0-0.1,0-0.1,0.1l0,0l0,0l0,0c0,0,0,0.1-0.1,0.1l0,0c0,0,0,0-0.1,0.1l0,0c0,0,0,0-0.1,0.1l0,0c0,0,0,0-0.1,0.1l0,0
					c-0.1,0-0.1,0.1-0.1,0.1l0,0c0,0,0,0-0.1,0.1l0,0c0,0,0,0-0.1,0.1l0,0c0,0-0.1,0-0.1,0.1l0,0c-0.1,0-0.1,0.1-0.1,0.1l0,0
					c0,0,0,0-0.1,0.1l0,0c0,0,0,0-0.1,0.1l0,0l0,0l0,0c-0.1,0-0.1,0.1-0.2,0.2l0,0c0,0,0,0-0.1,0.1l0,0c0,0,0,0-0.1,0.1l0,0
					c0,0,0,0-0.1,0.1l0,0l0,0l0,0c0,0,0,0.1-0.1,0.1l0,0c0,0,0,0-0.1,0l0,0c0,0,0,0-0.1,0.1l0,0c0,0,0,0-0.1,0.1l0,0l0,0
					c0,0,0,0-0.1,0l0,0l0,0l0,0c0,0,0,0.1-0.1,0.1l0,0c0,0,0,0-0.1,0l0,0c0,0,0,0-0.1,0.1c-0.2,0.2-0.4,0.5-0.6,0.7
					c-0.2,0.2-0.2,0.2-0.1,0.6C339.4,73.6,339.4,73.6,339.9,73.4z"/>
				<path class="st4" d="M318.4,86.2c-0.1-0.1-0.1-0.2-0.3-0.2c-0.1-0.1-0.3-0.2-0.4-0.4c-1.4-1.2-3.1-1.6-5-1.4
					c-1.4,0.1-2.7,0.7-3.9,1.5c-0.1,0.1-0.2,0.1-0.3,0.3c-0.3,0.1-0.7,0.5-0.9,0.8c0,0,0,0,0,0.1l0,0c-0.3,0.3-0.6,0.5-0.8,0.9
					c-0.7,1-1.2,2.3-1.5,3.5c-0.2,1.6-0.1,3,0.6,4.4c0.1,0.2,0.1,0.3,0.4,0.6l0,0l0,0l0,0c0,0,0,0,0,0.1l0,0c0,0,0,0.1,0.1,0.1l0,0
					l0,0l0,0c0,0,0,0,0,0.1l0,0c0,0,0,0,0,0.1l0,0c0,0,0,0.1,0.1,0.2l0,0c0,0,0,0.1,0.1,0.1l0.1,0.1c1.2,1.1,2.5,1.7,4.1,1.8
					c1.2,0,2.5-0.2,3.5-0.7c0.9-0.4,1.7-0.9,2.4-1.6c0.1,0,0.2-0.3,0.3-0.3c0.2-0.1,0.3-0.3,0.6-0.4c1.1-1.3,1.8-2.8,2-4.6
					c0-0.2,0-0.4,0.1-0.6l0-0.1C319.7,88.9,319.3,87.5,318.4,86.2L318.4,86.2z"/>
				<path class="st4" d="M338.9,94.4c0-0.2,0.1-0.2-0.2-0.3c-1.3-0.2-2.6-0.6-3.7-1.2c-0.5-0.3-0.9-0.6-1.4-1.1c0,0,0-0.1-0.1-0.1
					l0,0c0,0,0,0,0-0.1l0,0l0,0l0,0c0,0,0-0.1-0.1-0.1l0,0l0,0l0,0c-0.1-0.1-0.1-0.2-0.2-0.3c-0.5-0.5-0.9-1-1.1-1.6
					c-0.1-0.1-0.2-0.2-0.4-0.3c-1.3-0.6-2.5-1-3.8-1.6l-0.1,0c0,0,0,0-0.1,0l-0.1,0c0,0,0,0-0.1,0l-0.1,0c0,0,0,0-0.1,0
					c0,0-0.1,0-0.1-0.1l-0.1-0.1l-0.1,0l0,0l0,0c0,0-0.1,0-0.1-0.1l-0.1,0c0,0,0,0-0.1,0c0,0,0,0-0.1,0l-0.1,0l-0.1,0l-0.1-0.1
					l-0.1,0l0,0c0.7-0.7,1.4-1.4,2-2.2c0.9-1,1.9-2,2.8-2.9c0.2-0.2,0.4-0.4,0.5-0.6l0,0c0.2-0.1,0.3-0.2,0.5-0.5
					c0.1-0.1,0.3-0.2,0.4-0.5c0-0.1-0.1-0.1-0.1-0.2c-0.6-0.6-1.2-1.2-1.8-1.8c-0.4-0.3-0.7-0.7-1.1-1c0-0.1-0.1-0.1-0.2-0.2l0,0
					l0,0l0,0c0,0,0,0,0-0.1l0,0c0,0,0,0,0-0.1l0,0c0,0,0,0,0-0.1l0,0c0,0,0,0,0-0.1l0,0c0,0,0,0,0-0.1l0,0c0,0,0,0,0-0.1l0,0
					c0,0,0,0-0.1-0.1l0,0c0,0,0,0-0.1-0.1l0,0c0,0,0,0-0.1-0.1l0,0c0,0,0,0-0.1-0.1l0,0c0,0,0,0-0.1-0.1l0,0
					c-0.1-0.1-0.4-0.3-0.5-0.4c-0.2,0.2-0.4,0.6-0.6,0.8l0,0c0,0,0,0-0.1,0.1l0,0l0,0l0,0c0,0,0,0,0,0.1l0,0l0,0l0,0c0,0,0,0-0.1,0
					l0,0c0,0,0,0-0.1,0.1l0,0l0,0l0,0l-0.1,0.1c-1.2,1.6-2.4,3.2-3.6,4.8c0-0.1,0-0.1,0-0.2c-0.1-0.9-0.1-1.8-0.1-2.6
					c-0.1-0.7-0.1-1.2,0-1.9c0-0.2,0-0.4-0.1-0.7c0-0.3-0.1-0.7-0.1-1c-0.5,0.2-1.1,0.3-1.7,0.5c-0.6,0.2-1.3,0.4-1.9,0.5l0,0
					c-0.1,0-0.1,0-0.2,0l0,0c0,0-0.1,0-0.2,0l0,0l-0.1,0l0,0c-0.1,0-0.1,0-0.2,0l0,0c0,0-0.1,0-0.2,0l0,0l-0.1,0l0,0
					c-0.1,0-0.1,0-0.2,0l0,0c0,0-0.1,0-0.2,0l0,0l-0.1,0l0,0c-0.1,0-0.1,0-0.2,0l0,0c0,0-0.1,0-0.2,0c-0.2,0.1-0.4,0-0.5,0.3
					c-0.1,0.1-0.1,0.3-0.1,0.6l0,0c-0.1,0.2-0.1,0.6,0,0.9c0,0.2,0.1,0.2,0.3,0.2c0.3-0.1,0.8-0.2,1.1-0.3s0.4,0,0.4,0.3
					c0,0.5,0,1.1,0.1,1.5c0,0.1,0,0.1,0,0.2c0,0.2,0,0.3,0,0.5l0,0.1c0,0.2,0,0.3,0,0.5s0,0.3,0,0.5c0.1,0.8,0.1,1.5,0.2,2.4
					c0,0.2,0,0.4,0.3,0.5c0.2,0.3,0.5,0.5,0.6,0.9c0,0.1,0,0.2,0.1,0.3c0.5,0.8,0.8,1.8,0.9,2.9c0,0.5,0.1,1,0,1.5
					c-0.1,1.2-0.5,2.5-1,3.5c-0.2,0.5-0.4,0.8-0.2,1.2l0,0.1c0.1,0.8,0.1,1.5,0.2,2.3c0,0.2,0,0.2,0.2,0.2c0.4,0,0.9-0.1,1.2-0.1
					c0.5,0,1.1-0.1,1.6-0.2c0.2,0,0.4,0,0.7-0.1c0.1,0,0.2-0.1,0.2-0.2c0-0.3-0.1-0.7,0-1c0-2.2,0.1-4.5,0.1-6.7
					c0.1,0,0.2,0.1,0.3,0.1c2.8,1.4,5.5,2.8,8.3,4.3c0.2,0.1,0.6,0.3,0.8,0.4c0,0.1,0.1,0.2,0.2,0.2c1.4,0.8,2.8,1.4,4.1,2.2
					c0.1,0.1,0.2,0.1,0.3,0.1l0,0c0.2,0.2,0.6,0.3,0.8,0.5c0.2,0,0.1-0.1,0.1-0.2C338.8,96.9,338.8,95.6,338.9,94.4z"/>
				<path class="st4" d="M391.8,82.1L391.8,82.1c-0.1-0.1-0.2,0-0.2-0.1l0,0c-0.1-0.1-0.2,0-0.2-0.1l0,0l-0.1,0
					c-0.9-0.3-1.8-0.4-2.8-0.7c-0.5-0.1-0.9-0.3-1.4-0.3c-0.2-0.1-0.2-0.1-0.3,0.3c0,0.1-0.1,0.2-0.1,0.5c0,0,0,0,0,0.1
					c0,0.1,0,0.1,0,0.1s0,0,0,0.1l0,0.1c-0.1,0.2-0.1,0.5-0.2,0.7c-0.1,0.1-0.1,0.2-0.2,0.4c-0.5,2-1,4-1.5,6
					c-0.1,0.5-0.3,0.9-0.3,1.3c0-0.1,0-0.1,0-0.2c-0.4-2.4-1-4.8-1.4-7.2c0-0.1,0-0.2-0.1-0.3l0-0.1l0-0.1l0-0.1c0-0.1,0-0.1,0-0.2
					l0-0.1c0-0.1,0-0.1,0-0.2c0-0.1-0.1-0.2,0-0.4c0-0.1,0-0.1,0-0.2l0,0c0-0.1,0-0.1,0-0.2l0-0.1c0-0.1,0-0.1,0-0.2l0-0.1
					c0-0.1,0-0.1,0-0.2l0-0.1c0-0.1,0-0.1,0-0.2l0,0c0-0.1,0-0.2,0-0.2l0,0l0,0c0-0.1-0.2,0-0.2-0.1l0,0c-0.1-0.1-0.2,0-0.2-0.1l0,0
					c-0.1-0.1-0.2,0-0.2-0.1l0,0c-0.1-0.1-0.2,0-0.2-0.1l0,0c-0.1-0.1-0.2,0-0.2-0.1l0,0c-0.1-0.1-0.2,0-0.2-0.1l0,0
					c-0.7-0.1-1.3-0.2-2-0.4c-1-0.3-2-0.4-3-0.7c-0.1,0-0.2,0-0.2,0.1c0,0.3-0.1,0.7,0,0.9c0,0.1,0,0.1-0.1,0.2
					c-0.1,0.1-0.1,0.2-0.1,0.3c0,0.1,0,0.2,0,0.3c0.4,0.2,0.7,0.3,1.2,0.4c0.2,0.1,0.4,0.2,0.3,0.4c-0.1,0.5-0.1,0.9-0.1,1.4l0,0.1
					c0,0.2,0,0.3,0,0.6c0,0.3-0.1,0.6,0,0.9c0,0.1,0,0.2,0.1,0.3c0.1,0.1,0.4,0.3,0.5,0.5c0.4,0.5,0.8,1.1,1,1.7c0,0.1,0,0.2,0,0.2
					c0.6,1.8,0.6,3.6,0,5.3l0,0.1c0,0.1,0,0.1-0.1,0.1c-0.1,0.2-0.2,0.5-0.3,0.7c-0.6,1.2-1.3,2.2-2.2,3.1c-0.2,0.2-0.5,0.5-0.5,0.8
					c0,0.8-0.2,1.6-0.3,2.4c0,0.2,0,0.3,0.3,0.4c0.3,0.1,0.8,0.2,1.1,0.2c0.5,0.1,1,0.1,1.5,0.2c0.1,0,0.2,0.1,0.3,0l0,0
					c0.1,0.1,0.3,0.1,0.5,0.1c0.1,0,0.2,0.1,0.3,0l0-0.1c0.1-0.2,0.2-0.5,0.2-0.7c0.1-0.9,0.3-1.7,0.5-2.6c0.2-1.4,0.6-2.8,0.8-4.1
					c0.2-0.7,0.3-1.4,0.4-2.2l0,0.1c-0.1,1.9,0.1,3.9,0,5.9l0,0.1c0,0.1,0,0.1,0,0.2c0,1.6,0,3.2,0.1,4.7c-0.1,0.5,0.1,0.9,0,1.4
					c0,0.1,0,0.3,0.1,0.4c0.3,0.1,0.7,0.2,0.9,0.3c0.7,0.2,1.3,0.5,2,0.6c0.2,0.1,0.5,0.2,0.7,0.2c0.1-0.2,0.2-0.5,0.3-0.7
					c0-0.1,0.1-0.2,0.1-0.2c0.2-0.6,0.5-1.2,0.6-1.9c0.2-0.5,0.3-0.9,0.5-1.3c0.1,0,0-0.1,0.1-0.2l0,0c0,0,0-0.1,0.1-0.1l0,0l0-0.1
					c0.3-0.7,0.4-1.4,0.7-2.1c0.2-0.5,0.4-1,0.5-1.5c0,0,0-0.1,0.1-0.1l0,0l0,0c0.1,0,0-0.1,0.1-0.2c0.1,0,0-0.1,0.1-0.2l0,0
					c0.1,0,0-0.1,0.1-0.2c0-0.1,0-0.1,0.1-0.2c0.4-0.9,0.6-1.9,1-2.9c0.2-0.5,0.4-1,0.5-1.5c0-0.1,0-0.1,0.1-0.2
					c0.4-0.9,0.6-2,1-2.9c0.2-0.5,0.3-0.9,0.6-1.4c0-0.1,0-0.1,0.1-0.2c0.3-0.7,0.4-1.4,0.7-2.1c0.2-0.6,0.5-1.2,0.6-1.7
					C391.9,82.1,391.9,82.1,391.8,82.1z M380.5,89.8L380.5,89.8L380.5,89.8L380.5,89.8z"/>
				<path class="st4" d="M388.6,95.3L388.6,95.3L388.6,95.3z"/>
				<path class="st4" d="M367.3,98.8c0-0.1,0-0.2,0-0.3c0,0,0,0,0-0.1c0.1-0.5,0-0.4-0.4-0.6c-0.8-0.4-1.5-1-2.2-1.6c0,0,0,0,0-0.1
					c0,0,0,0-0.1-0.1c-1.1-1.4-1.7-3-1.6-4.7c0-1.5,0.4-2.9,1.2-4.2c0.1-0.2,0.3-0.5,0.4-0.7l0,0l0,0l0,0c0,0,0,0,0-0.1l0,0l0,0l0,0
					c0,0,0.1,0,0.1-0.1c0.1-0.2,0.3-0.5,0.5-0.6c0.1-0.1,0.2-0.4,0.2-0.5c-0.2-1-0.3-1.9-0.4-2.9c0-0.4-0.2-1-0.2-1.4l0-0.1
					c-0.1-0.9-0.3-1.8-0.3-2.7c0-0.4-0.2-1-0.2-1.4c0-0.2,0-0.3,0-0.6c0-0.1,0-0.2-0.2-0.2c-0.3,0-0.8,0-1.1,0c-0.7-0.1-1.4,0-2-0.1
					c-0.2,0-0.2,0-0.3,0.3c0,0.1,0,0.3-0.1,0.5c0,0,0,0,0,0.1l0,0.1c0,0,0,0-0.1,0c0,0,0,0.1-0.1,0.1c0,0.1,0,0.2-0.1,0.2
					c0,0,0,0,0,0.1c0,0.1,0,0.2-0.1,0.3c-0.1,0.3-0.1,0.7-0.1,1c-0.3,1.6-0.6,3.2-0.9,4.8l0,0c-0.2-1.6-0.5-3.1-0.7-4.8
					c0-0.1,0-0.1-0.1-0.2c-0.1-0.4-0.2-0.9-0.2-1.3c0-0.1,0-0.2-0.1-0.2c-0.1,0-0.2,0-0.3,0c-1.5,0-2.8,0-4.3-0.1
					c-0.1,0-0.1,0-0.2,0c-0.1,0-0.1,0-0.2,0.1c-0.1,0.2-0.1,0.6-0.2,0.8l0,0c-0.1,0.1-0.1,0.2-0.1,0.3c-0.1,0.5-0.1,1-0.3,1.5l0,0.1
					c0,0.1,0,0.2-0.1,0.2l0,0.1c0,0.1,0,0.2-0.1,0.2c-0.2,0.7-0.2,1.4-0.4,2.1l0,0.1c0,0.1,0,0.2-0.1,0.3c-0.1,0.5-0.1,1-0.2,1.5
					c-0.2,0.7-0.3,1.5-0.4,2.2c0,0.2,0.3,0.3,0.4,0.4c0.4,0.3,0.6,0.6,1,0.9c0.1,0.1,0.1,0.2,0,0.3c-0.5,0.5-1.1,1.1-1.7,1.6
					c-0.2,0.2-0.4,0.5-0.5,0.8c0,0.1,0,0.2,0,0.3c0,0.1,0,0.1,0,0.2c-0.2,0.7-0.2,1.3-0.4,2c-0.1,0.3-0.1,0.7-0.3,1
					c-0.1,0.2,0.1,0.2,0.3,0.3c0.8,0.2,1.6,0.3,2.4,0.5c0.5,0.1,0.9,0.3,1.4,0.2l0.1,0c0.2,0.1,0.5,0.1,0.6,0.1
					c0.2,0.1,0.2,0,0.2-0.1c0.1-0.3,0.2-0.8,0.2-1.1c0.1-0.5,0.1-0.9,0.2-1.4c0-0.1,0-0.1,0-0.2c0.1-0.5,0.1-0.9,0.2-1.4
					c0.1-0.9,0.3-1.8,0.5-2.9c0.1,0.1,0.1,0.2,0.3,0.3c0.6,1.3,1.2,2.6,1.8,3.9c0.1,0.1,0.1,0.3,0.1,0.4c0.1,0.2,0.2,0.6,0.4,0.8
					l0,0c0.1,0.2,0.1,0.4,0.3,0.7c0.1-0.1,0.1-0.2,0.2-0.2c0.2-0.6,0.4-1,0.7-1.6c0-0.1,0.1-0.1,0.1-0.2c0.2-0.5,0.4-0.9,0.6-1.4
					c0.2-0.5,0.4-0.8,0.5-1.3l0,0c0.1,0,0,0.1,0,0.1c0,0.1,0,0.2,0,0.3c0.1,0.9,0.3,1.8,0.3,2.7c0.2,1.3,0.3,2.7,0.6,4
					c0,0.3,0.1,0.8,0.2,1.1c0,0.2,0,0.6,0.1,0.8c0,0.2,0,0.2,0.3,0.3c0.6,0.1,1.3,0.2,1.8,0.3c0.6,0.1,1.3,0.2,1.8,0.3
					c0.3,0.1,0.6,0.1,0.9,0.1c0.1,0,0.2,0,0.2,0.1c0,0,0,0,0.1,0C367.3,99.1,367.3,99,367.3,98.8C367.3,98.9,367.3,98.8,367.3,98.8z
					"/>
				<path class="st4" d="M306.4,81.8c0-0.2-0.2-0.6-0.2-0.8c0-0.1,0-0.1,0-0.2l0,0c0,0,0-0.1-0.1-0.1c-0.5-1.2-1.3-2.1-2.2-2.9
					c-0.3-0.2-0.6-0.4-0.9-0.6c0-0.1-0.1,0-0.1-0.1l0,0c0,0-0.1,0-0.1-0.1c0,0,0,0-0.1-0.1l0,0c0,0-0.1,0-0.1-0.1l0,0l0,0l0,0
					c0,0-0.1,0-0.1-0.1l0,0c0,0,0,0-0.1,0l0,0c0,0-0.1,0-0.1-0.1l0,0l0,0l0,0c0,0-0.1,0-0.1-0.1l0,0c0,0-0.1,0-0.1-0.1l0,0l0,0l0,0
					c0,0-0.1,0-0.1-0.1l0,0c0,0-0.1,0-0.1-0.1l0,0c0,0-0.1,0-0.1-0.1l0,0c0,0-0.1,0-0.1-0.1l0,0c0,0-0.1,0-0.1-0.1l0,0l0,0l0,0
					c0-0.1-0.1,0-0.2-0.1l0,0c-0.6-0.2-1.1-0.3-1.7-0.3c-2.1-0.4-4.2-0.4-6.2,0c-0.6,0-1.3,0.2-1.9,0.4l0,0c-0.1,0-0.1,0-0.2,0l0,0
					c-0.1,0-0.1,0-0.2,0l0,0l-0.1,0l0,0c-0.1,0-0.1,0-0.2,0l0,0c0,0-0.1,0-0.2,0l0,0l-0.1,0l0,0l-0.1,0l0,0l-0.1,0l-0.1,0
					c-2.1,0.7-4.2,1.7-6.1,2.8c0,0-0.1,0-0.1,0.1l0,0c0,0,0,0-0.1,0l0,0c0,0-0.1,0-0.1,0.1s0.1,0.2,0.3,0.3l0,0
					c0,0.1,0.1,0.2,0.1,0.3c0.3,0.6,0.7,1,0.9,1.6l0,0l0,0l0,0l0,0.1c0,0,0,0,0,0.1l0,0.1c0.6,0.9,1,1.8,1.6,2.8
					c0.1,0.3,0.3,0.3,0.6,0.2c0.1,0,0.2-0.1,0.3-0.1c0.5-0.3,0.9-0.4,1.4-0.7c0.1-0.1,0.3-0.1,0.4,0.1c0.3,0.7,0.6,1.4,0.9,2
					c0.6,1.5,1.3,3,1.9,4.6c0.6,1.5,1.3,3,1.9,4.6c0,0.1,0.1,0.2,0.3,0.3c0.1,0.1,0.1,0.1,0.1,0.2c0.6,1.4,1.2,2.8,1.8,4.2
					c0.1,0.3,0.3,0.6,0.3,0.9c0.1,0.1,0.1,0.1,0.1,0.2c0.3,0.8,0.7,1.7,1.1,2.6c0.1,0.2,0.3,0.6,0.3,0.9c0,0.1,0.1,0.1,0.2,0.1
					l0.1,0c0.1-0.1,0.2-0.1,0.3-0.1c0.9-0.3,1.9-0.6,2.8-0.8c0.3-0.1,0.7-0.2,1.1-0.3c0.1,0,0.1-0.1,0.1-0.2s0-0.1,0-0.2
					c-0.2-0.5-0.3-0.9-0.4-1.4c0,0,0-0.1,0-0.2c0,0,0,0,0-0.1l0-0.1c-0.2-0.8-0.4-1.6-0.6-2.5c-0.2-0.5-0.3-1.1-0.4-1.5l0-0.1
					c-0.4-1.4-0.7-2.9-1.1-4.4c0.6-0.4,1.1-0.8,1.7-1.2c0.5-0.3,0.9-0.7,1.4-1.1c0.3-0.3,0.7-0.5,0.9-0.9c0.1,0,0.2-0.1,0.2-0.3
					c0.5-0.6,1.1-1.4,1.6-2.2c0.1-0.2,0.3-0.5,0.4-0.8c0,0,0,0,0-0.1l0,0c0,0,0,0,0-0.1c0,0,0,0,0-0.1s0.1-0.2,0.2-0.5
					C306.4,84.6,306.7,83.3,306.4,81.8z"/>
				<path class="st4" d="M377.7,87.5c-0.1-0.4-0.3-0.9-0.7-1.3c-0.4-0.4-0.8-1-1.1-1.3c-1.3-1-2.9-1.3-4.6-1.1c-1.6,0.2-3,0.9-4.1,2
					c-0.1,0.1-0.3,0.3-0.4,0.4l0,0l-0.1,0c0,0-0.1,0-0.1,0.1c0,0,0,0,0,0.1l-0.1,0.1c-1.2,1.5-2,3.2-1.8,5.2c0,0.1,0,0.2,0,0.3
					c0.2,1.4,0.9,2.6,2,3.4c0.1,0.1,0.2,0.1,0.4,0.2l0.1,0c1.1,0.7,2.2,0.9,3.3,0.8c0.4,0,0.9-0.1,1.3-0.2c0.6,0,1-0.3,1.4-0.5
					c0,0,0,0,0.1,0c0.4-0.1,0.8-0.4,1.2-0.7c0.3-0.3,0.6-0.4,0.8-0.7c0.1,0,0.2-0.1,0.2-0.1c0.8-0.7,1.4-1.7,1.9-2.8
					C378,90.4,378.2,89,377.7,87.5z"/>
				<path class="st4" d="M347.8,86.8L347.8,86.8c-0.1,0-0.1-0.1-0.1-0.1s0,0,0-0.1l0,0c0,0,0,0,0-0.1l0,0c-0.5-0.5-1.1-0.9-1.6-1.4
					c-0.3,0.4-0.6,0.6-0.9,1l0,0c-0.1,0-0.2,0.1-0.3,0.3c0,0,0,0-0.1,0.1l0,0c-0.7,0.5-1.5,0.8-2.4,0.9c-0.3,0-0.7,0.2-1,0.1
					c0.5-0.5,0.9-1,1.5-1.5c1-1.1,2.2-2.2,3.3-3.4c0.1-0.1,0.2-0.2,0.3-0.4c0,0,0,0,0.1,0c0.1-0.2,0.3-0.3,0.4-0.5
					c0.3-0.4,0.6-0.6,0.9-1c0,0,0-0.1-0.1-0.1l0,0l0,0l0,0l0-0.1l0,0l0,0l0,0c0,0,0,0,0-0.1l0,0c0,0,0,0,0-0.1l0,0c0,0,0,0,0-0.1
					l0,0c0,0,0,0,0-0.1l0,0c0,0,0,0,0-0.1l0,0c0,0,0,0,0-0.1l0,0c0,0,0,0,0-0.1l0,0c0,0,0,0,0-0.1l0,0c0,0,0,0-0.1-0.1l0,0
					c0,0,0,0-0.1-0.1l0,0c-0.1-0.1-0.2-0.2-0.2-0.2c-0.7-0.6-1.7-1.1-2.6-1.4c-1.3-0.5-2.6-0.5-4-0.2c-1.6,0.2-3,0.8-4.2,1.8
					c-0.2,0.2-0.5,0.4-0.7,0.7c-0.1,0.1-0.2,0.1-0.3,0.3c-0.3,0.1-0.4,0.5-0.6,0.7c-1.1,1.6-1.3,3.4-1,5.3c0.2,1.3,0.9,2.5,1.9,3.5
					c0.4,0.3,0.6,0.7,1.2,0.8c0.1,0,0.1,0.1,0.2,0.1c1.2,0.7,2.4,0.9,3.7,1c1.4,0.1,2.6-0.2,3.9-0.6c0.6-0.2,1.1-0.4,1.8-0.6
					c0.1,0,0.2,0,0.3-0.1c0.8-0.4,1.5-0.8,2.3-1.3c0.1,0,0.1-0.1,0.1-0.1l0,0c0.3-0.3,0.6-0.6,0.9-0.9
					C348.7,87.7,348.3,87.3,347.8,86.8z"/>
			</g>
			<g>
				<path class="st2" d="M338.6,83c0.2-0.2,0.3-0.5,0.5-0.6c0.7-0.3,1.3-0.3,2-0.1l0,0c-0.2,0.2-0.4,0.5-0.6,0.7
					c-0.6,0.6-1.1,1.2-1.8,2c-0.3-0.3-0.3-0.7-0.3-1C338.3,83.7,338.5,83.4,338.6,83z"/>
				<path class="st2" d="M341.1,82.4L341.1,82.4C341.1,82.5,341.1,82.5,341.1,82.4L341.1,82.4C341,82.4,341.1,82.4,341.1,82.4z"/>
				<path class="st2" d="M299.5,86.8c-0.2-0.6-0.3-1-0.5-1.5c-0.1-0.4-0.3-0.9-0.3-1.3c0.1-0.1,0.1,0,0.2,0c0.8,0.2,1.3,0.6,1.4,1.4
					c0,0.4,0.1,0.9-0.1,1.4c-0.1,0.1-0.2,0.2-0.1,0.3c-0.1,0.1-0.2,0.2-0.4,0.4C299.7,87.1,299.6,86.9,299.5,86.8z"/>
			</g>
			<g>
				<path class="st5" d="M395.7,80.8c-0.1,0-0.1,0-0.2,0c-2.9-0.8-5.8-1.4-8.6-2.2l-0.1,0c-0.1,0.3-0.2,0.7-0.3,1
					c-0.1,0.2-0.1,0.5-0.2,0.7c0,0.1-0.1,0.3-0.1,0.5s0,0.1-0.1,0.2c0,0,0,0,0,0.1c0,0.1-0.1,0.2-0.1,0.3c0,0.1,0,0.1,0,0.2
					c0,0,0,0,0,0.1l0,0.1l0,0c0,0,0,0,0-0.1c0,0,0,0,0-0.1c0-0.1,0-0.1,0-0.2l0-0.1c0-0.1,0-0.1,0-0.2l0-0.1c0-0.1,0-0.1,0-0.2
					c0-0.1,0-0.1,0-0.2c0-0.3-0.2-0.6-0.2-0.9c0-0.2,0-0.4-0.2-0.6l0,0l0,0l-0.1,0l0-0.1c0-0.2,0-0.4-0.2-0.8c0-0.2-0.1-0.2-0.3-0.3
					c-3-0.7-6.1-1.4-9.1-2.2c-0.5-0.1-0.8-0.3-1.3-0.2c-0.2,0.4,0,0.8-0.1,1.1c0,0.1,0,0.2,0,0.4c0,0.6,0,1.2,0,1.8
					c0,0.1,0,0.1,0,0.2c0,0.2,0,0.4-0.1,0.7c0,0.3-0.1,0.7,0,1c0,0.2-0.1,0.3,0,0.6c0.4,0.2,0.7,0.3,1,0.4l0.1,0l0,0
					c0,0.1,0.1,0.1,0.1,0.2c0,0.2-0.1,0.5-0.1,0.7c0,0.1-0.1,0.2-0.2,0.1c-0.2-0.1-0.5-0.2-0.7-0.3c-2.4-1.2-5.8-0.2-7.8,1.1
					c-0.1,0-0.1,0.1-0.2,0c-0.1-0.7-0.2-1.3-0.3-2c0-0.4-0.1-0.9-0.2-1.4c0-0.1,0-0.2,0-0.3c-0.2-1-0.3-1.9-0.5-2.9
					c0-0.4-0.1-0.9-0.2-1.3c-0.1-0.7-0.2-1.2-0.3-1.9c0-0.2,0-0.2-0.2-0.2c-2.1,0-4.4-0.1-6.6-0.1c-0.1,0-0.2,0-0.2,0
					c-0.1,0.2-0.2,0.5-0.2,0.7c-0.1,0.3-0.1,0.3-0.4,0.4c-0.4,0-0.9,0-1.2,0c-0.1,0.1-0.2,0-0.3,0c-1.2,0-2.5,0-3.7,0
					c-0.6,0-1,0-1.6,0l-0.1,0c0,0,0,0,0,0.1l0,0.1l0,0.1c0,0.1,0,0.1-0.1,0.2l0,0.1c0,0.1,0,0.2-0.1,0.2l0,0.1l0,0l0,0.1
					c0,0.2-0.1,0.3-0.2,0.6c-0.1,0.5-0.1,1-0.2,1.5c-0.1,0.2-0.1,0.5-0.2,0.7c0,0.1,0,0.2,0,0.3c-0.1,0.2-0.1,0.5-0.2,0.7
					c-0.1-0.1-0.3-0.3-0.4-0.4l0,0l0,0l0,0c-0.3-0.4-0.6-0.8-1-1.3c-0.1,0-0.2-0.1-0.2-0.2c-1-0.8-1.9-1.4-3.1-1.9
					c-0.7-0.3-1.4-0.4-2.1-0.5c-0.2-0.1-0.5-0.1-0.7-0.1c-0.1,0-0.1,0-0.1-0.1l0.1,0l0.1,0l0.1,0l0,0l0.1,0l0,0c0,0,0,0,0.1,0l0,0
					l0,0c0,0,0,0,0.1,0l0,0c0,0,0,0-0.1,0c0,0,0,0,0.1,0l0.1,0l0.1,0l0.1,0l0.1,0l0.1,0l0,0c0,0,0,0,0.1,0l0,0l0,0c0,0,0,0,0.1,0
					l0,0c0,0,0,0-0.1,0c0,0,0,0,0.1,0l0.1,0l0.1,0l0.1,0l0.1,0l0,0l0.1,0l0,0c0,0,0,0,0.1,0l0,0l0,0c0,0,0,0,0.1,0l0,0
					c0,0,0,0-0.1,0c0,0,0,0,0.1,0l0.1,0l0.1,0l0.1,0l0.1,0l0,0l0,0l0,0l0,0l0,0l0,0l0.1,0l0,0c0,0,0,0,0.1,0l0,0l0,0c0,0,0,0,0.1,0
					l0,0c0,0,0,0-0.1,0c0,0,0,0,0.1,0l0.1,0l0.1,0l0.1,0l0.1,0c0.1,0,0.3-0.1,0.4-0.3l0,0l0.1,0l0,0c0.1,0,0.1,0,0.2-0.1
					c0.5-0.3,1.2-0.7,1.7-0.9c0,0,0.1,0,0.1-0.1c0.1,0,0.1-0.1,0-0.1c-0.3-0.4-0.5-0.9-0.9-1.3c0-0.1-0.1-0.2-0.1-0.3
					c-1-1.6-2.1-3.1-3-4.7c0-0.1-0.1-0.2-0.1-0.3c0,0,0,0-0.1,0l0,0c0,0-0.1,0-0.1,0.1l0,0l0,0c-0.4,0.4-0.8,0.9-1.1,1.2
					c0,0,0,0-0.1,0l0,0c0,0,0,0-0.1,0l0,0l0,0c0,0,0,0,0,0.1c-0.2,0.2-0.4,0.4-0.5,0.6c-0.1,0.1-0.2,0.2-0.3,0.4c0,0,0,0-0.1,0l0,0
					c0,0,0,0-0.1,0l0,0c0,0,0,0-0.1,0l0,0c-0.1,0.2-0.3,0.4-0.5,0.6c-0.2,0.2-0.3,0.4-0.5,0.6c-0.2,0.1-0.3,0.4-0.4,0.5
					c0,0,0,0-0.1,0c0,0,0,0-0.1,0c-0.2,0.2-0.4,0.4-0.5,0.6c-0.1,0.1-0.3,0.3-0.4,0.5c0,0,0,0,0,0.1l0,0c0,0,0,0-0.1,0
					c0,0,0,0-0.1,0c-0.1,0.1-0.2,0.1-0.2,0.2c-0.1,0.1-0.2,0.2-0.3,0.4c-0.1,0.1-0.2,0.4-0.4,0.5c0,0,0,0.1-0.1,0.1
					c-0.2,0.1-0.3,0.4-0.5,0.6c-0.3,0.4-0.6,0.7-1,1.1l-0.1,0.1c0,0.3,0.3,0.4,0.4,0.6c0.1,0.1,0.1,0.3,0.4,0.3l0,0c0,0,0,0.1,0,0.2
					c0,0.1,0.1,0.1,0.1,0.2c0.1,0.1,0.1,0.2-0.1,0.3c-0.3,0.1-0.8,0.3-1.1,0.5c0,0,0,0-0.1,0c0,0,0,0-0.1,0
					c-0.1,0.1-0.3,0.1-0.4,0.3c0,0.1-0.1,0.1-0.1,0.1c-0.1,0-0.2,0.1-0.3,0.1c-0.3,0.1-0.7,0.3-1,0.5c-0.1,0-0.2-0.1-0.2-0.1
					c-0.1-0.2-0.4-0.3-0.6-0.5c-0.5-0.5-1.1-1-1.6-1.4c0,0,0,0,0-0.1l0,0c0,0,0-0.1-0.1-0.1l0,0c0,0,0,0-0.1-0.1c0,0,0,0,0-0.1l0,0
					c0,0,0,0-0.1-0.1l0,0c0,0,0,0-0.1-0.1l0,0c0,0,0,0-0.1-0.1l0,0c0,0,0,0,0-0.1c-1.1-1-2.3-2.1-3.5-3.2l-0.1-0.1
					c-0.2,0.2-0.3,0.4-0.4,0.6l0,0.1c0,0,0,0,0,0.1c0,0,0,0.1-0.1,0.1c0,0,0,0,0,0.1c-0.1,0.1-0.1,0.2-0.2,0.4
					c-0.1,0.1-0.1,0.2-0.2,0.2c0,0,0,0.1-0.1,0.1c0,0,0,0,0,0.1c-0.1,0.1-0.1,0.2-0.2,0.4c0,0,0,0.1-0.1,0.1c0,0,0,0,0,0.1
					c-0.1,0.1-0.1,0.2-0.2,0.4c-0.1,0.1-0.2,0.2-0.2,0.4c0,0,0,0.1-0.1,0.1c0,0,0,0,0,0.1c-0.1,0.1-0.1,0.2-0.1,0.3
					c-0.1,0-0.1,0.1-0.2,0.2l0,0l0,0c-0.1,0-0.1,0.2-0.2,0.2c0,0,0-0.1-0.1-0.1c0,0,0,0,0-0.1c0.1-0.6,0-1,0.1-1.6
					c0-0.1,0-0.2,0-0.2l0-0.1c0,0,0,0,0-0.1c-0.1-0.1,0-0.2,0-0.3c0-0.3,0.1-0.7,0-1.1c-0.1,0-0.2,0-0.3,0c-2.4,0.8-4.8,1.5-7.4,2.2
					c-1,0.3-2,0.6-3,0.9l0,0.1c0,0.1,0,0.2,0,0.3c0,0.1,0,0.2,0,0.3c0.1,0.1,0,0.2,0,0.2c0,0.3-0.1,0.7,0,1c0.1,0.1,0,0.2,0,0.3
					c0,0.3,0,0.6,0,0.9c0.1,0.1,0,0.2,0,0.3c0,0.3-0.1,0.7,0,1c0.1,0,0,0.1,0,0.1s0,0-0.1,0.1c-0.1,0.2-0.1,0.6,0,0.8
					c0,0.1,0,0.2,0.1,0.2c0.2,0,0.3,0,0.4,0c0.3,0,0.7-0.2,1-0.2c0.2,0,0.1,0.1,0.1,0.2c0.1,0.7,0.1,1.5,0.2,2.1
					c0,0.2-0.1,0.2-0.2,0.1c0,0-0.1,0-0.1-0.1c0,0,0,0-0.1,0c-0.2-0.1-0.5-0.2-0.7-0.3c-0.2-0.1-0.6-0.2-0.8-0.2
					c0,0.1-0.1,0.1-0.2,0.1c-0.9-0.1-1.8-0.1-2.7,0.1c-1.2,0.2-2.4,0.8-3.5,1.4c-0.1,0-0.1,0.1-0.2,0.1c0-0.1,0-0.1,0-0.2
					c0.2-0.8,0.2-1.6,0.1-2.4c0-0.6-0.1-1-0.2-1.6c0-0.1,0-0.1,0-0.2c-0.3-1.1-0.8-2-1.6-2.8c-0.4-0.5-0.9-1.1-1.5-1.3l0,0
					c-1-0.7-1.9-1.3-3-1.7c-1.3-0.5-2.7-0.7-4-0.8c-1.5-0.1-2.9,0-4.4,0.1c-1.9,0.3-3.7,0.8-5.4,1.4c-0.7,0.3-1.4,0.6-2.1,0.8
					c-0.2,0-0.3,0.1-0.5,0.3c-1.5,0.7-3,1.6-4.5,2.5c0,0-0.1,0-0.1,0.1c0.1,0.1,0.1,0.3,0.4,0.4c0,0.1,0.1,0.2,0.1,0.3l0,0
					c0,0.1,0.1,0.2,0.1,0.2l0,0.1l0,0c0.1,0.2,0.3,0.4,0.4,0.8c0.1,0.1,0.1,0.2,0.3,0.3c0.1,0.2,0.1,0.4,0.4,0.6l0,0.1
					c0.3,0.3,0.4,0.5,0.5,0.9c0.2,0.2,0.4,0.5,0.5,0.9c0.1,0.2,0.3,0.4,0.4,0.6l0,0.1l0,0c0.3,0.3,0.4,0.6,0.5,0.9
					c0.1,0.2,0.3,0.4,0.4,0.6l0,0.1l0,0c0,0,0,0,0.1,0c0,0.1,0,0.2,0.1,0.2c0.1,0.2,0.3,0.3,0.3,0.5c0.2,0.2,0.4,0.6,0.5,0.9
					c0.6-0.2,1-0.4,1.5-0.7c0.1,0,0.1,0,0.2,0l0.1,0l0.1,0l0.1,0c0.1,0.2,0.1,0.4,0.3,0.5c0.1,0.4,0.4,0.9,0.6,1.3
					c0.1,0.4,0.4,0.8,0.6,1.2c0.1,0.3,0.3,0.5,0.4,0.9c0,0,0,0,0,0.1l0,0c0,0,0,0,0,0.1l0,0c0,0,0,0,0,0.1l0,0.1
					c0.1,0.2,0.3,0.5,0.3,0.8c0.3,0.5,0.4,1,0.7,1.5l0,0l0,0.1l0,0.1c0.3,0.4,0.4,1,0.7,1.4l0,0l0,0l0,0.1l0,0l0,0l0,0.1
					c0.1,0.3,0.3,0.7,0.4,1l0,0l0,0.1l0,0c0,0,0,0,0,0.1c0.1,0.2,0.3,0.4,0.3,0.8l0,0l0,0.1c0.1,0.2,0.3,0.5,0.3,0.8
					c0.3,0.5,0.4,1.1,0.7,1.5c0,0.3,0.3,0.5,0.4,0.9c0.3,0.8,0.6,1.5,1,2.3l0,0.1l0,0l0,0.1c0,0,0,0,0,0.1c0,0,0,0,0,0.1l0,0
					c0,0,0,0,0,0.1l0,0l0,0.1l0,0l0,0.1l0,0c0,0.3,0.3,0.5,0.4,0.9c0.3,0.5,0.4,1.1,0.7,1.6c0,0.1,0.1,0.2,0.2,0.1
					c0.4-0.1,0.8-0.3,1.2-0.3c0.8-0.3,1.7-0.5,2.4-0.8c0.6-0.2,1.1-0.3,1.7-0.5l0.1,0c0,0,0,0,0.1,0l0.1,0l0,0c0,0,0,0,0.1,0l0.1,0
					l0.1,0c0,0,0,0,0.1,0l0.1,0l0.1,0c0,0,0,0,0.1,0l0.1,0c0,0,0,0,0.1,0l0.1,0c0,0,0,0,0.1,0c0.1,0,0.1,0,0.2,0c0.1,0,0.1,0,0.2,0
					c0.1,0,0.1,0,0.2,0l0,0c0.1,0,0.2-0.1,0.3,0c0.2,0,0.2-0.1,0.2-0.4c-0.2-0.6-0.3-1.1-0.4-1.7c-0.1-0.4-0.2-0.8-0.3-1.2
					c0-0.1,0-0.1,0-0.2l0,0c0-0.1,0-0.1,0-0.2c-0.2-0.9-0.4-1.7-0.7-2.5c0-0.1,0-0.2,0-0.2l0,0l0,0l0-0.1c0-0.2,0-0.3-0.2-0.6
					c0-0.1,0-0.1,0-0.2l0-0.1c0-0.1,0-0.1-0.1-0.2c0.1-0.1,0.1-0.2,0-0.3c0-0.2-0.2-0.6-0.2-0.8c-0.1-0.3-0.2-0.7-0.2-1
					s-0.2-0.7-0.3-1c0-0.1,0-0.3,0.1-0.3c0.5-0.4,1-0.8,1.5-1.1c-0.1,0.6,0,1.1,0,1.7l0,0.1c0,0.1,0,0.2,0,0.3
					c0,0.2,0.2,0.6,0.2,0.8l0,0.1l0,0.1c0,0.2,0.2,0.6,0.3,0.8c0,0.1,0,0.2,0.1,0.2l0,0l0,0.1c0,0.1,0,0.1,0,0.1
					c0.1,0.4,0.4,0.9,0.8,1.2c0.4,0.5,0.9,0.9,1.4,1.4c0.7,0.5,1.4,0.9,2.4,1.2l0.1,0c0.1,0,0.1,0.1,0.2,0.1
					c0.8,0.2,1.6,0.3,2.4,0.3c0.3,0,0.7-0.1,1.1-0.1c1.1-0.2,2.1-0.5,3.1-1l0,0l0,0c0,0,0.1,0,0.1-0.1l0.1-0.1l0,0
					c0.1-0.1,0.2-0.1,0.3-0.1c0.2-0.1,0.3-0.3,0.5-0.4c0,0,0,0,0.1,0c0,0,0,0,0.1,0c0.1-0.1,0.3-0.3,0.4-0.4l0.1-0.1
					c0.1,0,0.1-0.1,0.2-0.1s0,0.1,0,0.2c0,0.3,0.1,0.7,0.1,0.9c0,0.6,0.1,1.1,0.1,1.7c0,0.2,0.1,0.3,0.4,0.3c2.3-0.3,4.7-0.6,7-0.9
					c0,0,0.1,0,0.1-0.1c0.1-0.1,0.1-0.2,0.1-0.3c0-1.5,0.1-2.9,0.1-4.4c0.1-0.1,0.1-0.2,0.1-0.3c0-0.4,0-0.8,0-1.2
					c0-0.3,0-0.3,0.3-0.1c1.1,0.6,2.1,1.1,3.1,1.5c0.1,0.1,0.2,0.1,0.3,0.1l0.1,0c0.4,0.2,0.6,0.4,0.9,0.5l0,0l0.1,0
					c0.1,0.1,0.2,0.1,0.4,0.2c1.2,0.6,2.4,1.2,3.5,1.7c0.1,0.1,0.2,0.1,0.2,0.2c0.1,0,0.2,0.1,0.2,0.1c0.8,0.5,1.8,0.9,2.6,1.4
					c0.2,0.1,0.5,0.2,0.6,0.3c0,0,0.1,0,0.1,0.1c0.9,0.5,1.8,1,2.7,1.4c0,0,0,0,0,0.1c0.1-0.1,0.1-0.2,0.1-0.3
					c0.1-1.7,0-3.5,0.1-5.2c0-0.3,0.1-0.7,0-0.9l0,0c0-0.1,0-0.2,0-0.3c0-0.2,0-0.4,0.1-0.6c0.1,0,0.3,0,0.4,0
					c2-0.3,3.8-0.9,5.6-1.7c0.1,0,0.2-0.1,0.2-0.1c0.1,0.1,0,0.1,0,0.1l0,0.1c0,0.1,0,0.1-0.1,0.2l0,0.1c0,0.1,0,0.1-0.1,0.2l0,0.1
					c0,0.1,0,0.2-0.1,0.3l0,0.1c0,0.1,0,0.2-0.1,0.2l0,0.1l0,0c0,0,0,0,0,0.1c-0.1,0.6-0.2,1.3-0.3,1.8c0,0.1,0.1,0.2,0.2,0.2
					s0.3,0.1,0.5,0.1c0.7,0.2,1.4,0.2,2.2,0.4c0.6,0.1,1.1,0.1,1.7,0.3c0.3,0.1,0.6,0.1,0.9,0.1c0.1,0,0.3,0,0.5,0.1
					c0.3,0.1,0.6,0.1,0.9,0.1c0.5,0.1,0.9,0.1,1.4,0.2c0.2,0.1,0.2,0,0.3-0.1c0.1-0.9,0.3-1.7,0.5-2.6c0.4,0.8,0.8,1.5,1.2,2.4
					c0.1,0.2,0.1,0.4,0.4,0.5c0.2,0.2,0.3,0.7,0.5,0.9c0.2-0.2,0.3-0.5,0.5-0.7c0.4-0.5,0.6-1.1,0.9-1.5c0,0.2-0.1,0.6,0.2,0.9l0,0
					c0,0,0,0-0.1,0c-0.1,0.2,0,0.4,0.1,0.7c0,0.6,0.1,1,0.1,1.6l0,0.1c0,0.1,0,0.2,0,0.3c0,0.3,0,0.6,0.4,0.5c3,0.5,5.8,1.1,8.8,1.6
					c0.1,0,0.2,0.1,0.4,0l0,0c0-0.6-0.1-1.2-0.3-1.8c0-0.1,0-0.2,0-0.2l0,0l0-0.1c0-0.1,0-0.2,0.1-0.2l-0.1,0c0,0,0,0,0-0.1
					c0-0.1,0-0.2,0-0.3c0-0.3,0-0.3,0.3-0.3c0.3,0,0.6,0.1,0.9,0c0.1,0,0.2,0,0.3-0.1c0.4,0,1-0.1,1.4-0.2c0.6-0.2,1-0.3,1.5-0.5
					c0.1-0.1,0.2-0.1,0.3-0.1c0,0.1,0,0.3-0.1,0.5c-0.1,0.6-0.1,1-0.2,1.6c-0.1,0.5-0.1,0.9-0.2,1.4c0.1,0,0.1,0,0.2,0l0.1,0
					c0.4,0,0.9,0.1,1.3,0.1c0.7,0.1,1.3,0.2,1.9,0.3c0.6,0.1,1,0.1,1.6,0.2c0.3,0.1,0.8,0.2,1.1,0.1c0,0.1,0.1,0.1,0.2,0.1l0,0.1
					c0,0.1,0,0.1,0,0.2c0,0.1,0,0.1,0,0.2c0,0,0,0,0,0.1l0,0l0,0c-0.1,0.1-0.1,0.2-0.1,0.3c0,0.3,0.1,0.7,0.1,1.1
					c0,0.2-0.1,0.3,0,0.6c0.1,0.1,0.2,0.2,0.4,0.2c1.5,0.5,3.1,1,4.6,1.5c0.5,0.2,1,0.4,1.5,0.4c0.1,0,0.1-0.1,0.1-0.1
					c0.1-0.2,0.2-0.5,0.3-0.8c0.3-0.7,0.4-1.4,0.7-2.1l0-0.1l0,0c0.3-0.6,0.5-1.3,0.6-2c0.2-0.5,0.4-0.9,0.4-1.5l0.1-0.1l0,0
					c0.3-0.6,0.5-1.3,0.6-1.9c0.2-0.5,0.4-0.8,0.5-1.3l0.1-0.1l0,0l0.1-0.1l0,0l0,0l0.1-0.1l0,0c0.1,0,0.1-0.1,0.1-0.2
					c0.1,0,0.1-0.1,0.1-0.2c0.1-0.1,0.1-0.2,0.1-0.2c0.4-1.2,0.8-2.3,1.2-3.5c0.2-0.5,0.4-0.8,0.5-1.3c0.1-0.1,0.1-0.2,0.1-0.2
					c0.3-0.9,0.6-1.9,0.9-2.7c0.2-0.5,0.4-0.9,0.4-1.5l0.1-0.1l0,0c0.1-0.1,0.1-0.2,0.1-0.2c0.4-1.2,0.8-2.3,1.2-3.5
					c0.1-0.2,0.2-0.4,0.2-0.6c0.2-0.4,0.3-0.6,0.4-0.9C395.7,81,395.7,80.8,395.7,80.8z M393.1,86.3L393.1,86.3L393.1,86.3z
					 M382.9,78.8L382.9,78.8L382.9,78.8L382.9,78.8z M366.6,86.6L366.6,86.6L366.6,86.6L366.6,86.6
					C366.6,86.4,366.6,86.4,366.6,86.6C366.6,86.4,366.6,86.4,366.6,86.6L366.6,86.6z M349.6,81.7C349.6,81.7,349.7,81.7,349.6,81.7
					C349.7,81.7,349.7,81.7,349.6,81.7c0,0.1,0,0.1,0,0.1l0,0.1c-0.1,0-0.1,0.1-0.1,0.2c-0.1,0.3-0.2,0.7-0.1,1
					c-0.1,0.5-0.1,0.9-0.2,1.4c-0.4-0.3-0.7-0.6-1-0.9c-0.1-0.1,0-0.2,0-0.3c0.2-0.4,0.5-0.5,0.8-0.9c0.2-0.2,0.4-0.4,0.5-0.7
					C349.5,81.8,349.6,81.7,349.6,81.7z M342.1,70.6c0.3-0.4,0.6-0.7,0.9-1.1c0.2-0.2,0.4-0.5,0.6-0.7c0.1-0.2,0.2-0.1,0.3,0
					c0.4,0.6,0.9,1.3,1.3,1.8c0.1,0.1,0.1,0.2,0.2,0.2l0,0l0,0l0,0l0,0l0,0l0,0l0,0l0,0l0,0c0,0,0,0,0,0.1l0,0l0,0c0,0,0,0,0,0.1
					l0,0.1c-0.3,0.3-0.8,0.4-1.2,0.6c-0.4,0.3-1,0.4-1.4,0.7c-0.1,0-0.2,0-0.2,0.2c0,0,0,0-0.1,0l0,0c0,0,0,0-0.1,0l0,0l0,0l0,0
					c0,0,0,0-0.1,0l0,0l0,0l0,0c0,0,0,0-0.1,0l0,0l0,0l0,0c0,0,0,0-0.1,0l0,0l0,0l0,0c0,0,0,0-0.1,0l0,0l0,0l0,0c0,0,0,0-0.1,0
					l-0.1,0c0,0,0,0-0.1,0c0,0,0,0-0.1,0l0,0c-0.1,0-0.2,0.1-0.3,0.1l0,0c0,0,0,0-0.1,0l-0.1,0c0,0,0,0-0.1,0l-0.1,0l0,0
					c0,0,0,0-0.1,0l0,0c0,0,0,0-0.1,0l0,0c0,0,0,0-0.1,0c0,0,0,0-0.1,0c0,0,0,0-0.1,0c0,0,0,0-0.1,0c0,0,0,0-0.1,0c0,0,0,0-0.1,0
					c0,0,0,0-0.1,0c0,0,0,0-0.1,0c0,0,0,0-0.1,0c0,0,0,0-0.1,0c0,0,0,0-0.1,0c0,0,0,0-0.1,0c0,0,0,0-0.1,0c0,0,0,0-0.1,0
					c0,0,0,0-0.1,0l0,0l-0.1,0c0,0,0,0-0.1,0l-0.1,0l-0.1,0c-0.2,0.1-0.3,0.1-0.5-0.1c-0.3-0.3-0.3-0.3,0-0.6
					c0.2-0.2,0.4-0.5,0.6-0.7c0,0,0,0,0-0.1l0,0l0,0l0,0c0,0,0,0,0-0.1l0,0l0,0l0,0l0,0l0,0l0,0l0,0l0,0l0,0l0,0l0,0l0,0l0,0l0,0
					l0,0l0,0c0,0,0,0,0-0.1l0,0l0.1-0.1l0,0c0,0,0,0,0.1,0l0,0l0,0l0,0c0,0,0,0,0.1-0.1l0,0l0,0l0,0l0,0l0,0l0,0l0,0
					c0,0,0,0,0.1-0.1l0,0l0,0l0,0l0,0l0,0l0,0l0,0l0,0l0,0l0,0l0,0l0,0l0,0l0,0l0,0l0,0l0,0l0,0l0,0l0,0l0,0
					C341.9,70.8,342,70.7,342.1,70.6z M330.5,86.2c0-0.1-0.1-0.1-0.1-0.1c-0.1-0.1-0.2-0.1-0.5-0.2c-0.3-0.1-0.4-0.2,0-0.3
					c0.2-0.2,0.5-0.5,0.7-0.7c0.2-0.2,0.5-0.5,0.7-0.7c-0.1,0.6,0,1.1,0,1.7c0,0.2,0,0.4,0.2,0.6c-0.1,0.1-0.2,0.1-0.3,0
					C330.9,86.4,330.7,86.2,330.5,86.2z M284.7,79.2c1-0.5,2.1-1.1,3-1.5c0.9-0.4,1.6-0.7,2.5-1c0,0,0.1,0,0.1-0.1c0,0,0,0,0.1,0
					l0.1,0c0,0,0,0,0.1,0l0.1,0c0,0,0,0,0.1,0l0.1,0c0,0,0,0,0.1,0l0.1,0c0,0,0,0,0.1,0l0.1,0c0,0,0,0,0.1,0c0,0,0.1,0,0.2,0
					c0,0,0,0,0.1,0c0.1,0,0.1,0,0.2,0l0,0l0,0c0.1,0.1,0.3,0,0.4,0c1.2-0.3,2.3-0.4,3.6-0.5c1.7,0,3.3,0.1,4.9,0.5
					c0.1,0,0.2,0.1,0.3,0l0,0l0,0l0,0l0,0c0,0,0,0,0.1,0c0,0,0,0,0.1,0c0,0,0,0,0.1,0c0,0,0,0,0.1,0l0.1,0l0,0c0,0,0,0,0.1,0
					c0,0,0,0,0.1,0l0.1,0l0,0c0,0,0,0,0.1,0l0,0l0,0l0,0l0,0l0,0l0,0l0,0l0,0l0,0l0,0l0,0c0,0,0,0,0.1,0l0,0l0,0l0,0l0,0l0,0
					c0,0,0,0,0.1,0l0,0c0,0,0,0.1,0.1,0.1l0.1,0.1c1.2,0.8,2.1,1.9,2.6,3.2c0,0.1,0,0.1,0.1,0.1l0,0c0,0.1,0,0.1,0,0.2
					c0,0.1,0,0.2,0,0.3c0.2,0.9,0.2,1.8,0,2.7c-0.2,0.7-0.3,1.4-0.6,2c0,0,0,0.1-0.1,0.1c0,0,0,0,0,0.1l0,0.1l0,0l-0.1,0.1
					c-0.3,0.7-0.8,1.3-1.2,1.9c-0.2,0.4-0.5,0.6-0.8,1c-0.2,0.2-0.4,0.5-0.6,0.7c-0.4,0.4-0.8,0.7-1.3,1.1c0,0,0,0-0.1,0
					c-0.5,0.3-1.1,0.8-1.6,1c-0.1,0-0.1,0.1-0.1,0.1l0,0.1c0.3,1.3,0.7,2.6,1,3.9c0,0.1,0,0.1,0.1,0.2l0,0c0,0.1,0,0.1,0,0.2
					c0.3,1.2,0.5,2.3,0.9,3.5c0,0.1,0,0.2,0.1,0.2l0,0l0,0c0,0.1,0,0.1,0,0.2c0,0.4,0.2,0.9,0.3,1.3c0,0.2,0,0.3-0.2,0.4
					c-0.2,0-0.6,0.2-0.8,0.2c-0.9,0.3-1.8,0.5-2.6,0.8c-0.1,0-0.2,0-0.3,0.3c-0.1-0.1-0.2-0.1-0.3-0.1c0.1-0.1,0-0.3-0.1-0.4
					c-0.4-1-0.8-1.8-1.3-2.8c0-0.1,0-0.2-0.2-0.2c0,0,0,0-0.1,0l0.1,0c0.1-0.1,0-0.3-0.1-0.4c-0.4-1.1-1-2.2-1.4-3.3
					c-0.1-0.4-0.3-0.9-0.6-1.2l0,0c0-0.1,0-0.1-0.1-0.2c-0.4-1-0.9-2.1-1.3-3.1c-0.1-0.4-0.4-0.9-0.6-1.3c0-0.1,0-0.2-0.1-0.3
					c-0.4-1.1-0.8-2.1-1.4-3.2c-0.1-0.3-0.3-0.5-0.4-0.9c-0.3-0.7-0.6-1.3-0.8-2c-0.1-0.2-0.1-0.2-0.2-0.1c-0.5,0.3-1.2,0.6-1.7,0.8
					c-0.2,0.1-0.2,0.1-0.3-0.1c-0.3-0.5-0.5-1-0.9-1.5c-0.3-0.4-0.4-0.8-0.7-1.2c0,0,0-0.1-0.1-0.1l0-0.1l0,0c0,0,0,0,0-0.1l0,0
					c0,0,0,0,0,0.1c0,0,0,0,0-0.1l0,0c0-0.1,0-0.2-0.1-0.3c-0.3-0.5-0.5-1-0.9-1.5c0-0.1-0.1-0.2-0.1-0.3c0,0,0,0,0-0.1l0,0l0,0l0,0
					C284.4,79.5,284.6,79.3,284.7,79.2z M314.3,97.6c-1.6,0.7-3.3,0.8-5,0.3c-0.8-0.3-1.5-0.8-2.1-1.4c0,0,0,0-0.1,0c0,0,0,0-0.1,0
					l-0.1-0.1c0,0,0,0,0-0.1l0,0l0,0l0,0l0,0l0-0.1c0,0,0,0,0-0.1l0,0c0-0.1,0-0.1-0.1-0.2c-0.5-0.9-0.8-1.8-0.9-3
					c0-0.4,0-1,0.1-1.5c0.1-0.2,0.2-0.6,0.3-0.8c0.4-1.2,1.1-2.2,1.9-3.2c0-0.1,0.1-0.1,0.2-0.2c0.2-0.2,0.4-0.4,0.7-0.6l0,0l0,0
					c0.2,0,0.3-0.1,0.4-0.3c1.5-1,3.2-1.6,5.1-1.4c1.3,0.1,2.3,0.6,3.3,1.5c0.1,0.1,0.1,0.2,0.2,0.2l0,0c0,0.1,0.1,0.1,0.2,0.2l0,0
					c0,0,0,0.1,0.1,0.1c0.5,0.6,0.8,1.4,1,2.2c0.2,0.6,0.1,1,0.1,1.6l0,0c-0.1,0.2-0.1,0.3-0.1,0.6c0,0.1,0,0.1-0.1,0.2
					c-0.2,1.5-0.9,2.8-1.8,3.9c-0.1,0.1-0.3,0.4-0.4,0.5c0,0,0,0-0.1,0c-0.1,0.1-0.2,0.2-0.4,0.3C315.9,96.7,315.2,97.2,314.3,97.6z
					 M333.4,95.4L333.4,95.4L333.4,95.4z M338.5,97.5c-0.1,0-0.2-0.1-0.3-0.1c-1.4-0.8-2.8-1.5-4.2-2.2c-0.1,0-0.1-0.1-0.2-0.1l0,0
					c-0.1-0.1-0.2-0.2-0.4-0.3c-2.9-1.6-5.9-3-8.7-4.6c-0.1-0.1-0.2-0.1-0.3-0.1c-0.1,0-0.2,0-0.2,0.1c0,0.1-0.1,0.3-0.1,0.5
					c0,2.3-0.1,4.5-0.1,6.9c0,0.2,0,0.4-0.1,0.6l0,0c-0.2,0-0.4,0-0.8,0.1c-0.8,0.1-1.7,0.3-2.5,0.3c-0.6,0-0.6,0-0.6-0.5
					c-0.1-0.7,0-1.4-0.2-1.9c0-0.1,0-0.1,0-0.2c0-0.1,0-0.1,0-0.2c0-0.2,0-0.3,0.1-0.5c0.3-0.6,0.6-1.2,0.9-1.8
					c0.2-0.7,0.4-1.4,0.4-2.2c0-0.1,0.1-0.2,0.1-0.3c0-1-0.1-2-0.5-3c-0.2-0.6-0.4-1.1-0.8-1.6l0,0l0,0c0-0.3-0.4-0.6-0.6-0.8
					c-0.1-0.2-0.3-0.4-0.3-0.7c0-0.6-0.1-1.1-0.2-1.8c0-0.3,0-0.8-0.1-1.1c0-0.2,0-0.3,0-0.6c0-0.1,0-0.1,0-0.2c0-0.1,0-0.3,0-0.4
					c0-0.1,0-0.1,0-0.2l0-0.1c-0.1-0.7-0.1-1.3-0.2-2c-0.7,0.2-1.2,0.3-1.8,0.5c0-0.3-0.1-0.7-0.1-1l0.1-0.1c0-0.3,0.2-0.5,0.4-0.6
					c0.1,0,0.1,0,0.2-0.1c0,0,0,0,0.1,0l0.1,0c0,0,0,0,0.1,0l0.1,0c0,0,0,0,0.1,0l0.1,0c0,0,0,0,0.1,0l0.1,0c0,0,0,0,0.1,0l0.1,0
					c0,0,0,0,0.1,0l0.1,0c0,0,0,0,0.1,0l0.1,0c0,0,0,0,0.1,0l0.1,0c0,0,0,0,0.1,0l0.1,0c0,0,0,0,0.1,0l0.1,0l0,0l0,0
					c0.1,0.1,0.3,0,0.4,0c1-0.3,1.9-0.5,2.9-0.8c0.3-0.1,0.3,0,0.4,0.2c0,0.3,0.1,0.7,0.1,1c0,0.2,0,0.2,0.1,0.2l0,0
					c-0.1,0.1-0.1,0.2-0.1,0.3c0,0.3,0.1,0.7,0.1,0.9c0,1.1,0.1,2.2,0.2,3.4c0,0.1,0,0.2,0.1,0.3c0-0.1,0.1-0.1,0.1-0.2
					c1.1-1.6,2.2-3,3.3-4.6c0.1-0.1,0.2-0.1,0.2-0.2c0.1,0,0.1-0.1,0.1-0.1s0,0,0-0.1c0,0,0,0,0,0.1l0,0c0,0,0,0,0.1-0.1l0,0
					c0,0,0.1,0,0.1-0.1c0,0,0,0,0-0.1c0,0,0,0-0.1,0.1l0,0l0,0l0,0l0,0c0,0,0,0,0.1-0.1c0,0,0,0,0-0.1l0,0l0,0c0,0,0.1,0,0.1-0.1
					c0,0,0,0,0-0.1l0,0c0,0,0.1,0,0.1-0.1c0.2,0,0.3-0.3,0.4-0.5c0.1-0.1,0.2-0.1,0.3,0c0.1,0.1,0.1,0.2,0.2,0.2l0,0l0,0
					c0,0,0,0,0,0.1l0,0l0,0l0,0l0,0l0,0l0,0l0,0l0,0l0,0l0,0l0,0l0,0l0,0l0,0l0,0l0,0l0,0l0,0l0,0l0,0l0,0c0.1,0,0.1,0.1,0.1,0.2
					c0.4,0.4,0.6,0.7,1.1,1c0.6,0.6,1.2,1.2,1.8,1.9c0.1,0.1,0.1,0.2,0,0.3s-0.2,0.1-0.1,0.2l0,0c-0.2,0-0.4,0.3-0.5,0.5l-0.1,0.1
					c-1.9,1.8-3.7,3.8-5.5,5.6c0,0,0,0.1,0.1,0.1l0,0c0.1,0,0.1,0.1,0.2,0.1l0,0l0.1,0c0,0,0,0,0.1,0c0,0,0,0,0.1,0l0,0
					c0.1,0,0.1,0.1,0.2,0.1l0,0l0,0l0,0l0,0l0,0c0.1,0,0.1,0.1,0.2,0.1l0.1,0.1l0,0l0,0l0.1,0.1l0,0l0,0c0,0,0,0,0.1,0l0,0l0,0
					c0,0,0,0,0.1,0c0.1,0.1,0.2,0.1,0.4,0.2c1.2,0.5,2.5,1,3.6,1.5c0.2,0.1,0.4,0.2,0.4,0.3c0.3,0.4,0.5,0.9,0.9,1.3
					c0.1,0.2,0.4,0.4,0.5,0.5l0,0c0,0,0,0,0,0.1l0,0c0,0,0,0,0,0.1l0,0c0,0,0,0,0,0.1c0.6,0.6,1.3,1.1,2.2,1.5
					c0.9,0.5,1.9,0.7,2.9,0.9c0.1,0,0.3,0.1,0.3,0.3c0,1.4,0,2.7-0.1,4.1l0,0C339.1,97.6,338.8,97.6,338.5,97.5z M345.6,90.6
					c-0.7,0.3-1.4,0.6-2.2,0.7c-2,0.5-4,0.6-5.9-0.3c-0.3-0.1-0.6-0.4-0.9-0.5c0,0,0,0-0.1,0c-0.1-0.1-0.1-0.1-0.2-0.2
					c-1.2-0.8-2.1-1.9-2.5-3.3c-0.1-0.2-0.1-0.4-0.2-0.8c0-0.2,0-0.3,0-0.6c-0.1-1.5,0.1-2.9,0.8-4.2c0.2-0.5,0.5-0.8,0.8-1.2
					c0.1,0,0.2-0.1,0.3-0.3c0.2-0.2,0.4-0.5,0.7-0.6c1.9-1.5,4-2,6.4-1.9c1.6,0.1,3.1,0.6,4.3,1.7c0.1,0.1,0.2,0.2,0.4,0.2l0,0l0,0
					l0,0l0,0l0,0l0,0l0,0l0,0l0,0l0,0l0,0l0,0l0,0l0,0l0,0l0,0l0,0l0,0l0,0l0,0l0,0l0,0l0,0l0,0.1c-0.3,0.4-0.6,0.6-0.8,1
					c-0.1,0.1-0.3,0.4-0.4,0.5l0,0l0,0l0,0l0,0l0,0l0,0l0,0l0,0c-0.1,0.1-0.2,0.2-0.3,0.4l-0.1,0.1c-1.4,1.4-2.7,2.8-4,4.2
					c-0.2,0.2-0.4,0.4-0.6,0.6c0.1,0.1,0.2,0.2,0.3,0.1c0.4,0,0.8-0.1,1.2-0.2c0.7-0.2,1.3-0.3,1.8-0.8l0,0c0,0,0,0,0.1,0
					c0.1-0.1,0.2-0.1,0.3-0.3c0.3-0.1,0.5-0.4,0.7-0.6c0.1-0.1,0.2-0.1,0.3,0c0.3,0.3,0.5,0.5,0.8,0.7c0.1,0.2,0.4,0.4,0.6,0.4l0,0
					l0,0c0,0,0,0,0,0.1c0,0,0,0.1,0.1,0.1c0,0,0,0.1,0.1,0.1c0.4,0.4,0.7,0.7,1.1,1c0.2,0.2,0.2,0.2,0,0.4c-0.2,0.2-0.5,0.4-0.7,0.6
					c-0.6,0.6-1.4,1-2.1,1.4c-0.1,0-0.2,0.1-0.3,0.1l-0.1,0C345.7,90.4,345.6,90.5,345.6,90.6z M367.2,99.1L367.2,99.1
					c-0.2,0-0.2,0-0.3-0.1c-0.2-0.1-0.6-0.1-0.9-0.1c-1.1-0.1-2.3-0.4-3.4-0.6c-0.5-0.1-0.5-0.1-0.5-0.5c0-0.1,0-0.3-0.1-0.4
					c0,0,0-0.1-0.1-0.1c0-0.1,0-0.1,0-0.2c-0.2-1.1-0.3-2.3-0.5-3.5c0-0.4-0.1-1-0.2-1.4c0-0.3-0.1-0.7-0.1-1.1
					c-0.1-0.7-0.2-1.3-0.3-2c0,0,0-0.1-0.1,0l0,0c-0.1,0.1-0.1,0.1-0.2,0.2c-0.4,0.8-0.6,1.7-1,2.6c0,0.1-0.1,0.1,0,0.2
					c-0.2,0.2-0.3,0.5-0.4,0.7c-0.2,0.4-0.3,0.7-0.4,1c-0.1-0.2-0.1-0.4-0.4-0.5c0-0.1-0.1-0.2-0.1-0.2c-0.1-0.3-0.3-0.7-0.4-1
					l0-0.1c-0.6-1.4-1.2-2.7-1.8-4.1c0-0.1,0-0.1-0.1-0.2c-0.1,0.1-0.1,0.2-0.2,0.4c-0.2,1.3-0.5,2.6-0.7,3.9c0,0.1-0.1,0.2,0,0.3
					l0,0c-0.1,0.1-0.1,0.2-0.1,0.3c-0.2,0.7-0.2,1.4-0.4,2.1c0,0.1-0.1,0.3-0.3,0.3c-0.2-0.1-0.5-0.1-0.7-0.1
					c-0.6-0.1-1.3-0.2-1.8-0.3c-0.7-0.2-1.4-0.2-2.1-0.4c-0.1,0-0.2,0-0.1-0.2l0,0l0,0c0.1,0,0.1-0.2,0.2-0.4c0.1-0.5,0.1-1,0.3-1.5
					c0.1-0.5,0.1-0.9,0.2-1.4l0-0.1c0.1-0.1,0.1-0.3,0.1-0.5c0-0.1,0.1-0.2,0.2-0.4c0.6-0.6,1.2-1.2,1.9-1.8c0.1-0.1,0.1-0.1,0-0.2
					c-0.5-0.4-1-0.8-1.5-1.2l0-0.1c0.2-0.8,0.3-1.5,0.4-2.3c0.1-0.5,0.1-0.9,0.2-1.4c0.1-0.1,0.1-0.2,0.1-0.3l0,0
					c0.1-0.2,0.1-0.5,0.2-0.7c0.1-0.5,0.1-0.9,0.2-1.4c0.1-0.1,0.1-0.1,0.1-0.2l0-0.1c0.1-0.1,0.1-0.1,0.1-0.2l0-0.1l0-0.1
					c0.1-0.6,0.2-1.1,0.3-1.7c0.1-0.1,0.1-0.3,0.2-0.5c0.1-0.3,0.1-0.5,0.5-0.4c1.5,0,2.9,0,4.4,0.1c0.1,0,0.1,0.1,0.1,0.2
					c0,0.3,0.1,0.7,0.2,1.1c0,0.1,0,0.1,0.1,0.2l0,0l0,0c0,0.2,0,0.6,0.1,0.8c0.2,1.4,0.5,2.8,0.7,4.2c0,0.1,0,0.1,0,0.2
					c0-0.1,0.1-0.2,0.1-0.3c0-0.1,0.1-0.2,0.1-0.3c0.3-1,0.4-2.2,0.6-3.2c0.1-0.5,0.2-0.8,0.2-1.3c0.1-0.3,0.2-0.7,0.1-1
					c0.1-0.1,0.1-0.2,0.1-0.3l0,0c0.1-0.1,0.1-0.1,0.1-0.2l0-0.1c0,0,0,0,0.1-0.1c0-0.1,0-0.1,0-0.2l0,0l0,0c0,0,0,0,0.1,0
					c0,0,0.1-0.1,0.1-0.2c0.1-0.5,0.1-0.5,0.5-0.4c0.8,0,1.6,0,2.5,0c0.6,0,0.6,0.1,0.6,0.4c0,0.1,0,0.1,0,0.1s0,0,0.1,0l0,0
					c-0.1,0.1-0.1,0.2-0.1,0.3c0.2,1.2,0.3,2.5,0.5,3.7c0,0.1,0,0.1,0,0.2l0,0c0,0.1,0,0.2,0,0.3c0.2,1.3,0.3,2.6,0.6,3.9
					c0,0.2,0,0.4-0.2,0.7c-0.1,0.1-0.3,0.4-0.4,0.5c0,0,0,0.1-0.1,0.1l0,0c0,0,0,0-0.1,0.1l0,0c0,0,0,0,0,0.1l0,0l-0.1,0.1
					c-0.5,0.7-0.8,1.4-1.1,2.2c-0.3,0.8-0.4,1.6-0.5,2.5c0,1.1,0.2,2.2,0.7,3.3c0.3,0.5,0.5,1.1,1,1.6l0,0c0,0,0,0,0,0.1
					c0.5,0.6,1.2,1.2,2.1,1.6c0.2,0.1,0.5,0.3,0.5,0.6l0,0l0,0c0,0.1,0,0.2,0,0.3l0,0.1C367.3,98.9,367.3,99,367.2,99.1z
					 M371.5,96.6c-1.4,0.2-2.9,0.1-4.2-0.7c-0.1,0-0.1-0.1-0.2-0.1l0,0c0,0,0,0-0.1-0.1c-1-0.7-1.6-1.6-1.9-2.7
					c-0.1-0.4-0.2-0.8-0.3-1.2c0-0.1,0-0.1,0-0.2c-0.1-1.3,0.2-2.5,0.8-3.7c0.3-0.5,0.6-1,1-1.4c0,0,0.1,0,0.1-0.1l0,0
					c0,0,0,0,0.1-0.1l0,0l0,0c0,0,0.1,0,0.1-0.1l0,0l0.1,0c0.3-0.3,0.5-0.5,0.8-0.7c1.7-1.3,3.6-2,5.6-1.6c1.1,0.1,2.1,0.6,2.9,1.4
					c0.3,0.3,0.5,0.6,0.7,0.8l0,0l0,0c0.8,1.3,0.9,2.7,0.7,4.1c-0.1,0.5-0.3,0.9-0.4,1.4l-0.1,0.1c-0.4,0.8-0.8,1.4-1.4,2
					c-0.2,0.2-0.4,0.5-0.7,0.6c-0.3,0.4-0.6,0.5-1,0.8c-0.3,0.3-0.6,0.4-1,0.5l0,0l0,0l0,0l0,0l0,0l0,0c-0.4,0.1-0.9,0.3-1.3,0.4
					c-0.1,0-0.1,0-0.2,0C371.7,96.5,371.6,96.6,371.5,96.6z M374.3,99.7C374.5,99.6,374.5,99.6,374.3,99.7
					C374.5,99.6,374.3,99.7,374.3,99.7z M385.6,103.8c-0.1,0.1-0.1,0.5-0.3,0.5c-0.2,0-0.3-0.1-0.6-0.2c-0.3-0.1-0.7-0.2-1-0.4
					c-0.6-0.2-1.3-0.3-1.9-0.6c0,0,0-0.1-0.1-0.1l0-0.1c0-0.4-0.1-0.9,0-1.5c0-0.1,0-0.2,0-0.3c0-0.9,0-1.7,0-2.6c0-0.6,0-1.2,0-1.8
					c0-0.1,0-0.1,0-0.2l0-0.1c0-0.1,0-0.2,0-0.3c0-1.9-0.1-3.7,0-5.6c-0.1-0.1,0.1-0.2-0.1-0.3c0,0.1-0.1,0.2-0.1,0.3
					c-0.3,1.6-0.6,3.3-0.9,4.9c-0.1,0.5-0.2,0.8-0.2,1.3l0,0.1c-0.1,0.6-0.2,1.1-0.3,1.7c-0.1,0.5-0.1,0.9-0.2,1.4c0,0,0,0-0.1,0.1
					s-0.2,0.1-0.2,0c-0.1-0.1-0.3-0.1-0.5-0.1c-0.1,0-0.2,0-0.3-0.1c-0.5-0.1-0.9-0.1-1.5-0.2c0,0-0.1,0-0.1-0.1
					c-0.3-0.1-0.7-0.2-1.1-0.2c-0.1,0-0.1-0.1-0.1-0.2c0-0.2,0.1-0.5,0.1-0.7c0.1-0.6,0.1-1.3,0.2-1.8l0,0c0-0.2,0.2-0.5,0.4-0.6
					c0.9-0.9,1.8-1.8,2.2-3c0.2-0.4,0.3-0.6,0.4-0.9l0.1-0.1l0,0c0,0,0-0.1,0.1-0.1c0.4-1.2,0.6-2.4,0.4-3.6c-0.1-0.7-0.2-1.3-0.5-2
					l0,0c0.1-0.2,0-0.3-0.1-0.4c-0.3-0.7-0.7-1.2-1.2-1.7c-0.1-0.1-0.3-0.3-0.2-0.6c0.1-0.2,0.1-0.6,0-0.8c0-0.1,0-0.2,0-0.2
					c0-0.1,0-0.2,0-0.3l0,0l0,0l0,0l0,0l0,0l0,0l0,0l0,0l0,0l0,0c0.1-0.2,0.1-0.5,0.1-0.7c0.1-0.3,0.1-0.7,0.1-1
					c0-0.1,0-0.2-0.1-0.2c-0.5-0.1-0.9-0.3-1.3-0.3c0-0.1,0-0.2,0-0.3c0-0.1,0-0.1,0-0.2l0,0c0.1,0,0.1-0.1,0.1-0.2
					c0-0.2,0-0.4,0.1-0.6c0-0.4,0.1-0.5,0.4-0.4c1.4,0.3,2.8,0.6,4.1,0.9c0.1,0,0.3,0.1,0.4,0l0,0c0,0,0,0,0.1,0s0.1,0,0.2,0.1
					c0,0,0,0,0.1,0c0.1,0,0.1,0,0.2,0.1c0,0,0,0,0.1,0s0.1,0,0.2,0.1c0,0,0,0,0.1,0c0.1,0,0.1,0,0.2,0.1c0,0,0,0,0.1,0
					c0.1,0,0.1,0,0.2,0.1c0,0,0,0,0.1,0c0,0,0.1,0,0.1,0.1l0,0c0,0.1,0,0.1,0,0.2c0,0,0,0,0,0.1s0,0.1,0,0.2l0,0.1
					c0,0.1,0,0.1,0,0.2l0,0.1c0,0.1,0,0.1,0,0.2l0,0.1c0,0.1,0,0.1,0,0.2c0,0,0,0,0,0.1c0,0.1,0,0.1,0,0.2c0,0.1,0,0.2,0,0.3
					c0,0.1,0,0.1,0,0.2l0,0.1c0,0.1,0,0.1,0,0.2l0,0.1c0,0,0,0.1,0,0.2l0,0.1l0,0.1c0.4,2.3,1,4.8,1.4,7.1c0,0.3,0,0.6,0.2,0.9
					c0-0.1,0.1-0.1,0.1-0.2c0.5-2.1,1.1-4.3,1.6-6.3c0.1-0.5,0.3-0.9,0.3-1.4l0,0c0.2-0.1,0.2-0.5,0.3-0.6l0-0.1l0-0.1
					c0,0,0-0.1,0.1-0.1l0-0.1l0-0.1c0.1-0.5,0.1-0.5,0.5-0.3c0.8,0.2,1.7,0.4,2.5,0.6c0.5,0.1,0.9,0.3,1.5,0.3c0,0,0,0,0.1,0l0,0
					c0.1,0,0.1,0,0.2,0.1c0,0,0,0,0.1,0c0,0,0.1,0,0.1,0.1l0,0c0,0.1,0,0.1,0,0.1c-0.5,1.3-0.8,2.4-1.3,3.7c0,0.1-0.1,0.1,0,0.2l0,0
					l0,0c-0.1,0-0.1,0.1-0.1,0.2c-0.5,1.3-0.9,2.7-1.4,3.9c0,0.1-0.1,0.2-0.1,0.3l0,0c-0.1,0-0.1,0.1-0.2,0.2
					c-0.5,1.3-0.9,2.7-1.4,3.9c0,0.1-0.1,0.2-0.1,0.3l0,0l0,0c0,0,0,0.1-0.1,0.1c0,0,0,0,0,0.1l0,0.1c0,0,0,0,0,0.1
					c0,0,0,0.1-0.1,0.1c0,0,0,0,0,0.1l-0.1,0.1c-0.5,1.2-0.8,2.3-1.3,3.5c0,0.1-0.1,0.2,0,0.2l0,0l0,0l0,0l0,0l-0.1,0.1
					c0,0,0,0,0,0.1c0,0.1-0.1,0.1-0.1,0.1c-0.5,1.1-0.7,2.1-1.1,3.1c0,0.1,0,0.1,0,0.2C385.7,103.7,385.7,103.7,385.6,103.8z"/>
				<path class="st5" d="M289.1,94.3l0-0.1L289.1,94.3z"/>
				<path class="st5" d="M303.5,98.1c0,0,0-0.1-0.1-0.1C303.5,98,303.5,98.1,303.5,98.1z"/>
				<path class="st5" d="M283,86.3C283,86.4,283,86.4,283,86.3C283.1,86.4,283.1,86.4,283,86.3z"/>
				<path class="st5" d="M282.1,84.7C282.1,84.8,282.1,84.8,282.1,84.7C282.2,84.8,282.2,84.7,282.1,84.7z"/>
				<path class="st5" d="M331.5,75.7L331.5,75.7L331.5,75.7z"/>
				<path class="st5" d="M341,67.9C341,67.9,341.1,67.9,341,67.9C341,67.8,341,67.9,341,67.9L341,67.9C341,67.9,340.9,68,341,67.9
					C341,68.1,341,67.9,341,67.9z"/>
				<path class="st5" d="M385.6,79.2c0,0-0.1,0-0.1,0.1C385.5,79.2,385.6,79.2,385.6,79.2z"/>
				<path class="st5" d="M327.4,76.4L327.4,76.4L327.4,76.4z"/>
				<path class="st5" d="M310.4,90.9L310.4,90.9L310.4,90.9z"/>
				<path class="st5" d="M316.1,87.7c-0.1,0.5-0.1,1-0.4,1.4c-0.2,0.1-0.4,0.3-0.5,0.5c-0.1,0.1-0.2,0.1-0.3,0.1c-0.1,0-0.3,0-0.4,0
					c-0.4,0-0.9,0-1.4-0.2c-0.4-0.2-0.6-0.5-0.9-0.9l0-0.1l0,0c0-0.2,0-0.4-0.1-0.7c0.1-0.1,0.1-0.1,0.1-0.2l0,0l0,0
					c0-0.1,0.1-0.1,0.1-0.2c0.4-0.5,0.7-0.8,1.4-1c0,0,0.1,0,0.1-0.1l0.1,0c-0.4-0.2-0.7-0.2-0.9,0c-0.1,0-0.2,0-0.3,0
					c-0.7,0.2-1.3,0.4-1.8,0.9c0,0.1-0.2,0.1-0.2,0.2c-0.2,0.2-0.4,0.6-0.5,0.8l0,0c0,0-0.1,0.1,0,0.1c-0.2,0.5-0.2,0.8-0.1,1.3
					c0,0.4,0.2,0.9,0.4,1.2l0,0c0,0,0,0,0,0.1c0,0,0,0,0,0.1l0,0l0,0l0,0l0,0l0-0.1l0,0.1c0,0,0,0.1,0.1,0.1l0,0c0,0,0,0,0,0.1l0,0
					c0,0,0,0,0,0.1l0,0c0,0,0,0,0.1,0.1c0.1,0.2,0.4,0.4,0.6,0.5c1.3,0.9,3,0.8,4.3-0.1c0.1,0,0.1-0.1,0.2-0.1
					c0.1-0.2,0.3-0.4,0.4-0.6c0.2-0.2,0.3-0.5,0.4-0.7l0.1-0.1l0,0C316.8,89.3,316.7,88.5,316.1,87.7
					C316.2,87.7,316.2,87.7,316.1,87.7z"/>
				<path class="st5" d="M343.4,81.8c0.2-0.2,0.2-0.2,0-0.3c-1.1-1-2.4-1.4-3.8-0.9c-0.6,0.2-1.1,0.5-1.5,0.9
					c-0.4,0.4-0.7,0.8-0.8,1.3c0,0,0,0,0,0.1c-0.1,0.1-0.1,0.2-0.2,0.4c-0.2,1.3,0.1,2.4,0.8,3.3c0.1,0.1,0.3,0.3,0.5,0.4
					c0.2,0.1,0.2,0.1,0.4,0c0.7-0.7,1.3-1.5,2.1-2.3c0.5-0.5,0.9-1,1.4-1.6C342.7,82.7,343,82.2,343.4,81.8z M340,83.6
					c-0.4,0.4-0.7,0.8-1.1,1.2c-0.1,0.1-0.2,0.1-0.2-0.1c-0.1-0.4-0.2-0.8-0.1-1.2c0.1-0.1,0.1-0.3,0.1-0.5c0.1,0,0.1-0.1,0.1-0.1
					c0.1-0.2,0.2-0.4,0.4-0.5c0.6-0.6,1.4-0.8,2.3-0.6c0,0,0,0,0,0.1l0,0l0,0l0,0c0,0.1-0.1,0.1-0.2,0.2l0,0c0,0,0,0,0,0.1l0,0l0,0
					l0,0C340.7,82.7,340.3,83.2,340,83.6z"/>
				<path class="st5" d="M326.9,86.7C326.9,86.7,326.8,86.7,326.9,86.7C326.8,86.7,326.8,86.7,326.9,86.7z"/>
				<path class="st5" d="M296.9,83.4c0,0.1,0,0.1,0.1,0.1c0,0.1,0,0.1,0,0.2c0.2,0.8,0.5,1.4,0.6,2.2c0.1,0.4,0.2,0.8,0.3,1.2l0,0.1
					c0,0.6,0.3,1,0.3,1.4c0,0.3,0.2,0.7,0.3,1c0,0.2,0.1,0.2,0.3,0.1l0.1-0.1c0.1-0.1,0.2-0.1,0.3-0.3c0.5-0.4,1.2-0.8,1.6-1.3
					c0.3-0.3,0.6-0.6,0.8-1c0,0,0.1,0,0.1-0.1c0.6-1,0.6-2.1,0.4-3.2c0-0.2-0.2-0.6-0.4-0.8c-0.3-0.4-0.6-0.7-1.1-1
					c-0.8-0.5-1.7-0.5-2.7-0.3c-0.6,0-1,0.3-1.5,0.5c-0.1,0-0.1,0.1-0.1,0.2C296.7,82.8,296.8,83,296.9,83.4z M301.8,86.7
					C301.7,86.7,301.7,86.7,301.8,86.7C301.7,86.7,301.7,86.7,301.8,86.7L301.8,86.7z M299.3,83.3c0.2,0,0.5,0.2,0.8,0.2l0,0
					c0,0,0,0,0.1,0.1l0,0l0,0l0,0l0,0l0,0l0,0l0,0l0,0l0,0l0,0l0,0l0,0l0,0c0,0,0,0,0,0.1l0,0c0,0,0,0,0,0.1c0.2,0.6,0.2,1.2,0,1.8
					c0,0,0,0.1-0.1,0.1c0,0,0,0,0,0.1l0,0.1c0,0,0,0,0,0.1c0,0.1-0.1,0.1-0.1,0.2c-0.1,0.1-0.1,0.1-0.1,0.2l0,0l0,0l0,0
					c0,0,0,0-0.1,0l0,0c0,0,0,0-0.1,0c0,0,0,0-0.1,0c-0.1,0.1-0.2,0.2-0.3,0.3c-0.1-0.1-0.1-0.3-0.3-0.4c0.1-0.1,0-0.2,0-0.3
					c-0.2-0.9-0.5-1.7-0.8-2.5c0-0.1,0-0.3-0.3-0.4C298.8,83.3,299.1,83.3,299.3,83.3z"/>
				<path class="st5" d="M374.2,90.4c0-0.1,0.1-0.1,0.1-0.2c0.2-0.2,0.4-0.5,0.5-0.8l0.1-0.1l0,0c0,0,0-0.1,0.1-0.1
					c0.2-0.8,0.1-1.5-0.3-2.2c0,0-0.1,0-0.1,0.1c0,0,0,0,0,0.1c-0.1,0.7-0.2,1.1-0.9,1.5c-0.1,0-0.1,0.1-0.2,0.1
					c-0.4,0.3-1,0.3-1.6,0.1c-0.5-0.1-0.8-0.4-1.1-0.6c-0.1-0.2-0.3-0.4-0.4-0.8c0-0.3-0.1-0.7,0-1c0-0.1,0.1-0.1,0.1-0.2
					c0.4-0.5,0.8-0.9,1.5-1c0.1,0,0.1,0,0.1-0.1c-0.5-0.1-0.8,0-1.2,0c-0.8,0.1-1.4,0.5-2.1,1.1l-0.1,0.1c-0.3,0.4-0.5,0.7-0.6,1.2
					c-0.1,0.1-0.1,0.2-0.1,0.3l0,0l0,0c-0.1,0.5,0,0.9,0.1,1.2l0,0c0,0.1,0,0.1,0,0.2l0,0l0,0.1c0.1,0.2,0.3,0.5,0.4,0.8l0,0
					c0,0,0,0,0,0.1l0,0c0,0,0,0,0,0.1l0,0c0,0,0,0,0.1,0.1l0.1,0.1c1,1,2.6,1.2,4,0.7C373.6,91,373.9,90.8,374.2,90.4z"/>
				<path class="st5" d="M373.4,96.1L373.4,96.1L373.4,96.1z"/>
			</g>
			<g>
				<path class="st6" d="M316.2,87.7L316.2,87.7c0-0.1,0-0.1,0-0.2C316.1,87.6,316.1,87.7,316.2,87.7z"/>
				<path class="st6" d="M381.7,89.8C381.7,89.7,381.7,89.7,381.7,89.8C381.7,89.7,381.7,89.7,381.7,89.8c0,0.1-0.1,0.2-0.1,0.3
					c0.1,0.1,0,0.2,0.1,0.3C381.8,90.2,381.8,90,381.7,89.8z"/>
				<path class="st6" d="M374.6,86.8c0,0.1,0,0.1,0,0.2c0,0,0,0,0.1,0C374.7,86.9,374.7,86.8,374.6,86.8z"/>
				<path class="st6" d="M341.5,81.8L341.5,81.8L341.5,81.8L341.5,81.8c-0.5-0.2-0.9-0.1-1.4-0.1c-0.4,0.1-0.9,0.3-1.2,0.7
					c0.1,0,0.2,0,0.4,0c0.6-0.2,1.1-0.1,1.6,0.1l0,0l0,0c0,0,0,0,0.1,0c0.1-0.1,0.2-0.1,0.2-0.2l0.1,0
					C341.6,81.9,341.6,81.9,341.5,81.8L341.5,81.8z"/>
				<path class="st6" d="M300.7,83.8L300.7,83.8L300.7,83.8L300.7,83.8c-0.1-0.1-0.1-0.1-0.1-0.1l0,0c0,0,0,0,0-0.1l0,0
					c0,0,0,0-0.1-0.1l0,0c0,0,0,0-0.1-0.1l0,0c0,0-0.1,0-0.1-0.1c0,0-0.1,0-0.1-0.1l0,0c0,0-0.1,0-0.1-0.1l0,0
					c-0.1,0-0.2-0.1-0.3-0.1c-0.3-0.1-0.7-0.2-1,0c-0.1,0-0.1,0.1-0.1,0.2c0,0.1,0.1,0.3,0.1,0.4c0.2,0,0.5,0.1,0.6,0.2
					c0.4,0.2,0.7,0.4,0.9,0.8c0.2,0.6,0.2,1.1-0.1,1.7c-0.1,0.2-0.1,0.2,0,0.3c0,0,0,0,0.1,0c0,0,0,0,0.1,0l0,0c0,0,0,0,0.1-0.1l0,0
					c0,0,0,0,0.1-0.1l0,0c0-0.1,0.1-0.1,0.1-0.2c0.1-0.1,0.1-0.1,0.1-0.2c0.1,0,0.1-0.1,0.1-0.1c0.1,0,0.1-0.1,0.1-0.1l0,0l0,0
					c0.1-0.1,0.1-0.1,0.1-0.2C301,85.1,301,84.5,300.7,83.8C300.8,83.9,300.8,83.9,300.7,83.8z"/>
			</g>
		</g>
	</g>
</g>
</svg>
