<?xml version="1.0" encoding="utf-8"?>
<!-- Generator: Adobe Illustrator 24.1.2, SVG Export Plug-In . SVG Version: 6.00 Build 0)  -->
<svg version="1.1" id="Layer_1" xmlns="http://www.w3.org/2000/svg" xmlns:xlink="http://www.w3.org/1999/xlink" x="0px" y="0px"
	 viewBox="0 0 548.34 463.73" style="enable-background:new 0 0 548.34 463.73;" xml:space="preserve">
<style type="text/css">
	.st0{fill-rule:evenodd;clip-rule:evenodd;fill:#E6282B;stroke:#020203;stroke-width:5.6693;stroke-miterlimit:10;}
	.st1{fill-rule:evenodd;clip-rule:evenodd;fill:#5164AC;stroke:#020203;stroke-width:5.6693;stroke-miterlimit:10;}
	.st2{fill-rule:evenodd;clip-rule:evenodd;fill:#020203;stroke:#020203;stroke-miterlimit:10;}
</style>
<path class="st0" d="M36.71,4.29h475.79c18.07,0,32.71,14.64,32.71,32.71v390.68c0,17.71-14.64,32.71-32.71,32.71H90.01
	c-12.29,0-37.95-28.73-46.8-37.22c-1.45-1.45-2.71-2.71-4.16-4.16c-7.59-7.59-15.36-15-22.59-22.95
	c-5.06-5.06-12.65-13.37-12.65-20.42V37.18C4,18.92,18.64,4.29,36.71,4.29L36.71,4.29z"/>
<path class="st1" d="M126.51,373.1c16.99,0,30.72,13.91,30.72,31.08c0,16.99-13.73,31.08-30.72,31.08s-31.08-13.91-31.08-31.08
	C95.43,387.19,109.53,373.1,126.51,373.1L126.51,373.1z"/>
<path class="st2" d="M352.21,379.79h117.46c1.99,0,4.16,1.63,4.16,4.16l0,0c0,2.35-1.99,4.52-4.16,4.52H352.21
	c-2.35,0-4.16-1.99-4.16-4.52l0,0C348.24,381.59,349.86,379.79,352.21,379.79L352.21,379.79z"/>
<path class="st2" d="M352.21,402.01h117.46c1.99,0,4.16,1.99,4.16,4.52l0,0c0,2.35-1.99,4.16-4.16,4.16H352.21
	c-2.35,0-4.16-1.63-4.16-4.16l0,0C348.24,404,349.86,402.01,352.21,402.01L352.21,402.01z"/>
<path class="st2" d="M352.21,424.6h117.46c1.99,0,4.16,1.63,4.16,4.16l0,0c0,2.35-1.99,4.52-4.16,4.52H352.21
	c-2.35,0-4.16-1.99-4.16-4.52l0,0C348.24,426.23,349.86,424.6,352.21,424.6L352.21,424.6z"/>
</svg>
